<svg xmlns="http://www.w3.org/2000/svg" width="1314" height="1314">
    <g id="leaves" fill="#caecff">
        <animate attributeName="fill-opacity" from="0" to="1" dur="2s" begin="0s" />
        <path fill-rule="evenodd" d="M753.3 825.9v-.2h-.1v.1z" clip-rule="evenodd" />
        <path fill-rule="evenodd"
            d="M744.4 734.2c-5.7 6-12.1 11.5-17 18.3-.2.3-.7.4-1.4.8a52.6 52.6 0 0125.7-34.6c-9 2.4-14.3 10.4-19.4 14.4 6-12.3 3.7-23.3 26.5-38.3 1.2-.8 2.2-1.8 3-3a69.5 69.5 0 00-21.6 17.5l-.6-.7c11.7-43.1 14.9-22.1 26.6-50.6-2.5 2.2-3.7 5.3-5.4 8-3.2 5.2-4.8 6.5-13.9 16.3-.2-2.8 1.1-4.7 1.3-6.9 1-11.1 11.3-17.4 16-35.2.3-1.6.8-1.4-.7-2.5-2.6 9.2-7 17.3-12.5 25 4.4-18.6 8-37.2 10-56.2 4 7.7 3.4 15.4-.2 23.7 2.2-1 2-1.8 4.6-9.3.9 1 1.3 1.6.6 2.5 15.2 35.8 10.5 77-21.6 110.8zm-3.1-41.3c-3.6 16-7.8 31.9-14 47 2.5-16.3 9.4-31.3 14-47zM721 748.1c-1-.6-.5-1.6-.4-2.3.9-18.6-7.9-30.6-6.1-56 2.2-31.3 28.1-52 42.6-82.8l1-1.8.9.1a266.7 266.7 0 01-9.4 49.3c-1.5-5.8-1.9-11.8-4.2-18.3-1 2.4-.1 4 0 5.4.7 5.5 4.7 18.7-2.4 38.3-.2.4-.3 1-1.3 1 0-9-3.1-17.3-5.2-25.9-1.2 10.2 8.4 23.3-.7 46.2-.9 2.2-1.1 4.7-2.8 7.5a84.5 84.5 0 00-6.6-28c-.9 1.8 0 3.2.4 4.6 7.2 24 2.7 30.4 1.4 38.2-.4 2.3-.7 4.7-2 7.6-1.4-4.8-1.7-9.3-4.1-13.9-1.4 7 6 15.5-1.1 30.8zm-.4 19.4c0-3.5.2-7 1.6-10.2a33 33 0 01-1.6 10.2zm4.2 17c-3.2-3.8-5-7.6-7.3-11.5 2.3 0 3.6.4 3.9 2.7.4 2.9 2.8 5.2 3.4 8.8zm24.8 30.2c1.3 1.5 3.2 2.6 2.5 5.1-.2.5.6 1.6 1.2 2 1.8 1.5.4 2.7-.2 4 1.7.4 2.1 1.8 2.6 3.2-1.6-.5-2.3-1.6-2.5-3.1h-.2l.1-.2c-4.9-6.9-8.7-14.4-13.8-21.3 1-.5.6-1.2 10.3 10.3zm9 10.7c-1.3 0-1.7-.7-2.2-2 1.3.2 1.9.8 2.2 2zm7 9.4c-4.6-2.1-5-2.8-6-1.2-.6 1-2.9-.6-2.6-2 .3-.9 1-1 1.7-.8 2.8.5 5.5 1.2 7 4zm-5.2-7.7l1.2 1c.2.3.1.7-.2.6-.4-.2-.9-.6-1.2-1-.3-.2-.2-.4.2-.6zm-50.7-25.5c-5.7 4.6-11.2 4.4-11.4 13.5-.3 9.1 4 13.3 2.7 17-4-4-6.6-8.2-7.8-13.7 1.3.2 1.7 1.7 3.4 1.3-6-8.5-5.1-13.2-3.2-20.5 2 1.9 1.2 4.8 3.9 6.5-1.5-8.8-5.8-8.8 4.6-21.7.8 3.1.4 6.1 2.7 8.2-.4-6.6-3.6-11.6 7.7-15.9-2 13.5 4.5 19.6-2.6 25.3zm-29.9 1.5a26 26 0 0128.9-28.6c-2 1.8-4.3 3.2-6 5.2-3.1 3.7-8.6.4-11.4 6.2 2.7-.5 4.4-3 7.3-2-5.2 8.6-4 7.6-7.5 9a14.2 14.2 0 00-6.4 5.6c-.5.7-1 1.4-.2 2.5 2.5-2.6 4.2-6 8.7-7.2-2.5 5-2.4 10.2-5 14.6a20.8 20.8 0 00-2 7c-.2.6-.2 1.3.7 1.7 2-1.5.7-4.2 2.6-6.5.8 8.1 2.9 15.2 7.7 21.3-8.5-3.2-16.6-17.7-17.4-28.8zm28.7-52.4a538 538 0 01-4.7-11.7c-1.6-3.9-4-7.4-4.5-11.7 6 11 10 22.7 14.2 34.4-2.7-3.2-3.5-7.3-5-11zm-1.4 6c1.3.9 2 1.6 2.3 2.8-1.4-.3-1.8-1.2-2.3-2.8zm-40.6-34c9.1 4.4 16.8 11 24.6 17.2-9-4.6-16.8-10.8-24.6-17.2zM637.8 733c-.3-1 .2-1 2.3-2-2-1.4-6.2 2.2-9.1-1.7.7-1 2 .2 2.8-.8-2.2-1.6-5.3 3.1-17.2-8.6-22.3-22.1-28.6-32.6-44.5-52-.6-.7-1.3-1.5-2-3.4 8 5.8 16 9.5 23.5 14.6-1.8 1.8-3.8 0-5.8.9a2 2 0 002.3 1.2c5.6-1 10.1 1.5 14.5 4.3 2.5 1.6 5.4 2.5 7.9 4.9-3.8 1.8-7.5.5-12 .7 8.8 4.7 10.9-2.2 20.3 3.8 15.4 9.7 15 9.3 16 10.9-6.8 3.8-13.8 2.7-21.2 1.6.9 1.4 2 1.5 3 1.7 27.3 4.7 9.2-11.4 36.6 8.6a22.3 22.3 0 01-19 1.3c3.6 3 9.4 4.7 19 .9 1-.4 2-1 3.1-.2 3.8 2.9 8 5.1 11.6 8.8-4.9 2.6-9.5 1.6-16.8 3.2 13.3 2.3 17-4.2 22.4.7 3.8 3.4 7 3.5 7.7 6.2-15.5.5-30.7-.7-45.4-5.6zm-66-72.6c22.2 7 37.5-4.9 80.8 27.3 25.6 19 35.6 43.9 36.2 46.9-4.5-2.2-7.5-5.2-10.9-7.6-.7-.6-.8-1.4-1-2.2a72 72 0 00-5.8-13c-.3-.6-.5-1.3-1.7-1.3 1.6 4.6 4.4 8.7 5.2 14.2-21.8-13.8-.6 2.9-30.2-37.6h-.9c4.5 9.5 12.9 16.8 16.3 28.1-6.4-4.1-12.7-6.7-18.1-10.7-1-.7-1.3-1.8-1.8-2.7-5.5-9.3-12-18-18-26.8l-1.2-.1c4.7 8.4 14 20 17 27-34-20.9-15.7-11.5-33.7-28.7 2.7 5 7 9 10 14.5a47 47 0 01-23-18c-.2 2.9 1.6 3.8 1.9 5.3-4-1-19.3-10.6-22.8-14.4.4-1 1.2-.4 1.7-.2zm118.7 4.9c3-4 4.7-8.6 6.8-13 .1-.3-.1-.8-.2-1.5-4.3 5-5.9 11.4-10.5 16-1.8-18.7 14.1-21 16.5-42-3.9 5.8-2.1 9-12.6 22.3-.9-1.5-.2-2.4.2-3.4 1.5-4.3 2.1-8.8 3.8-13 1.5-3.7 9-15 8.4-23.9-2 4.4-2.6 9.2-5.2 13.8-.8-3 .5-5.7.6-8.4.1-4.6 4-12.2 4-16.1-1.7-.2-1.2 1.6-2.3 2.2-1.5-3.5-.4-7.2-1.2-10.7-.9-3.6-2-7-2.2-10.9 2.6 5.8 12.4 24.3 12.5 44.3.3 36.5-14.3 41.8-23.5 60.8-1.4-6.8 1.4-11.8 4.9-16.5zm-4.8-31c-1.5.2-1.3 1.3-1.5 2.2-.9 5.1-1.3 10.3-.8 15.5.5 4.7-1.3 9-2.4 13.4-1.2-3-.5-6.1-1-9.4-2.5 2-1.1 11-.5 14.1.9 4.4.7 8.7.9 14-2.7-3.4-3.2-6.8-4.1-9.8-9.2-32.6 17-56.9 16.4-92 0-1.5-.5-3 1-4.7a41 41 0 013.5 18l-2-5.4c-1 2.5-.3 4.2 0 5.7 3 11.6.1 25.3-1.7 27.5l-1.2-11.8h-1c-1.5 6.3 3.8 12-5.8 36.5-1.2-4.7.6-9.2.3-13.7zm-2.6 47.7c-.9-3.8.1-7 0-8.8 0 1.8.4 5 0 8.8zm-34.4-12c-15.7-12.1-20.3-28-26.2-56.6-2.3-11.5-3.7-12.3-2.7-15a729 729 0 0018.1 27.7c-3.2-.2-4-3.2-6.6-3.7 3 6 8.1 5 9.5 6.7 1.5 1.8 11.4 13.8 11.3 16-7.3-1-11.9-6-16.6-10.6-.6.4-.6 1-.3 1.2 3.5 4.6 7.4 8.9 13.4 10.2 4.6 1 7.7 3.7 9.8 7.8 1.6 3.1 4.1 5.7 5.7 9.5-9-1.3-15.6-5.8-21.6-11.5-1 .7-.4 1.3 0 1.7 5.5 5.7 11.9 10 20 11.2 4.1.6 4.1 2 10.7 12.7-6.6-1.8-11.8-4.5-17.1-6.8.8 1.7 2.3 2.6 3.9 3.3 3 1.4 6 3 9.3 4 4.4 1.3 7 4 8.4 8.1.5 1.3 1.3 2.4 1.3 4.2a347.9 347.9 0 01-30.3-20.1zm9.4-46.7c-.5 13.5.6 22.2 11.8 37.8.7 1 2 1.8 1.8 3.4-1.8.2-1.2-1.4-13.6-17a7.8 7.8 0 01-1.7-5.3c0-6.5-2-12.6-4.7-18.4.5 6 3.3 11.7 2.8 18.6-21-25.8-8-10.3-16-30.3-1.4 3 2 7.7 1 11.1a231 231 0 01-17.4-26.3c9 7 36.4 15.5 36 26.4zm14.5 47.5c-2.3-1.6-2.3-1.6-2.7-4 1.4 1.1 2.5 2.2 2.7 4zm-10.2-70c.1-2.3-.7-4.6.2-7.4 2 4.5 2.8 8.8 4.2 13-2.7 9.1 5.4 12.2 4.9 26.1a35 35 0 01-6.7-12c-1 1.5-.5 2.5 0 3.5 6.7 15 8.7 12 8.4 23-3.1-1.6-3.9-4.9-6.4-7-.4 5.9 7.7 6.2 4.4 17-1.2.3-1.3-.8-1.7-1.4-12-21-8.9-30.7-7.3-54.7zM679 627c-1.5 3-2.3 6.3-3.7 9.4-.5-3.2-2.2-6-.2-9.5 1.9-3.3 2.7-7.5 1.4-11.7-1 3.5-1.2 7-3 11.1-2.6-9.1.6-6.6-.6-18.4-1.5 2-.7 3.8-1.9 6l-6.2-21.1c6.6 8.2 19 24.9 14.2 34.2zm85-29.8c-.1-1.9-.3-4-2.3-4.3-1.7-.3-2.6 1.6-3.3 3.1-12.9 28-32.3 49.5-41.8 73.7-12.5 32.2-.4 54.6 1 64 1.4 9.4-.2 18.8-.6 28.4-1-.8-1.2-1.8-1.5-2.7-17.8-51.8-39-65.3-20-88.5 36.5-44.5.9-105.1-3.3-104.4-2.4.5-2.1 7.1-2 12 .3 17.3-5 34.8-7.9 39-.8-.7-1-1.5-1.1-2.3-1.7-8.5-11.6-20.4-14.7-26.3-1-1.8-3.7-6.9-5.7-6.4-1.8.3-1.3 2.2-1.3 3.4 0 1.4-.4 27-1.5 29.4-1 0-1.4-.8-2-1.4-13.3-13.2-19-9.6-32.8-20.5-9.9-7.9-10.3-6.5-1.7 27.1 4.9 19.2 6.3 38.3 28.3 54 23.2 16.5 29.9 16.3 34.4 26.8 13.8 31.6 21.1 44.5 20.7 47.5-5.8-5-11-10-13.8-16.9-15.6-38.5-51.8-69.4-92.8-71-9.3-.4-18.6-.7-27.7-3.1a10 10 0 00-4.5-.3c-7.9 1.5 7.5 15.4 15.3 26.2 9.8 13.4 21 25.5 32.2 37.8 9 10 20.7 15.4 33.7 18.2 25.2 5.5 35.9-4.6 50 9.7 6.3 6.4 11.2 14 16.5 21.3.3.4.6 1 .2 1.5-.8.4-1.6.3-2.4 0-5.2-1.8-28-1.9-33.8 21.6-6.7 27.8 24.6 51 26 40 1-7.5-8-20.8 1.7-26.1 17.7-9.6 5.8-15.9 9.7-30.7 2 1 2.4 2.5 3.1 3.7 7.4 12.6 21.8 27.4 34.3 50.5 2.7 5 11.6 9 17 7.7 2.4-.6 3.4-2.8 2-4.3C761.9 824 753 813 743 802.8c-39.5-40.5-7.9-51.7 7.6-69.4 5.8-6.6 11.2-14 15.6-21.6a92.8 92.8 0 0011.2-39.1c1-14.6-1-31.7-6.4-45.3a91.8 91.8 0 01-7-30.3"
            clip-rule="evenodd" />
        <path fill-rule="evenodd"
            d="M749.8 708.8l8.8-7.3c-5 1.6-7.5 3.7-8.9 7.3zm14-76.7c1.4-2.7 3.6-5.2 2.2-8.6a19.9 19.9 0 00-2.1 8.6zm2.2-8.7zM754.5 708c2-1.1 4.1-2 5.2-4.2-2 1.1-4.2 2-5.2 4.2zm17.4-59.6a8.2 8.2 0 00-2 4.4c1.3-1 1.7-2.4 2-4.4zm-46.8 27.8c-.5-2.3-.5-4.7-1.2-6.9-.4 2.4-.6 4.8 1.2 6.9zm9.8-26c.6.7 1.5-.7 0-2.4-.6 1-.5 1.7 0 2.4zm-135 48l6.6 1c-3.8-2-3.8-2-6.6-1zm10.4 2.1h-5.2c2.3 1.7 3.8.7 5.2 0zm7 2c1.8 1.1 3 .3 4.3-.2a5.6 5.6 0 00-4.4.2zm25.5-11c-.9-3.6-2.3-6.6-4.9-9.7.2 2.9 2.8 7.9 4.9 9.7zm-10.7-13c.8 2.5 2 4.9 4.1 6.5-.8-2.6-2-5-4-6.5zm-4-49.7c1 1.8 2 2.6 4 2.5-1.1-1-1.9-2.4-4-2.5zm16.4-16c.6 2.4.2 5 1.9 7 .5-2.7.3-5.1-1.9-7zm5.4 7c-.3-2.2-.7-4-2.2-6.3-.2 4-.2 4 2.2 6.3zm309-152c-13 21.5-26.6 50.4-35.8 50.4 0 1.3 1.1.6 1.3 1 .4.3.5.5.2.7-4.6 4-9 8.4-14.2 11.7-9.5 6-13.1 2.8-16.7 4.3 2 1 3.8.5 5.8 1-1.6 1.8-3.1 1.5-12.3 1.5 2 1.8 3.6 1 5.5 1.9-5.8 3.6-11.7.4-18 1 3.3 1.6 6.2 1.7 10 2a171.9 171.9 0 01-49.8 12.7c-55.8-.7-67.4-29-85.4-40.2l.1-.8c28.2 0 27.5-.1 49.6 15.8 6.4 4.7 14 5.6 21.3 7.5l.3-.8c-19.4-6.3-14.4-3.3-37-20 19.7 2.5 20.5 2.6 22.7 3 13.8 2 17.2 18.2 57.8 18.3l1.2-.6c-3.5-.4-6.4-.8-9.3-.9a63 63 0 01-40-15.6c31.3 0 30-.8 44.4 3.2 12.3 3.4 24.8 2.4 36.1 1.5v-1c-15 .8-29.9 1-44.1-4.4.4-.8 1.4-1 2.3-1 22.3-3.6 14.3-6.5 40-4.8 8.4.5 16.3-2 24.4-4-6.9-.7-12.8 2.8-23.5 2.5l-12.3-.5c.4-1.7 0-.3 20-10 2.1-1 4.1-1.5 6.4-1.4 12.2.4 27-5.6 27.9-7.9-7 2.1-18 7.2-27.1 6 16.5-11.6 31.8-24 48.7-34.4.6.8 0 1.6-.5 2.4zm-238.8 52.7c-1.1.6-2.4 1.7-3.5-.5 53.5-27 84.4 6 152.7-6.7 7.2-1.3 11.2-3.7 12.3-2.6a66.9 66.9 0 01-11.6 3.7c-71 17.6-105-18.3-149.9 6.1zm31.5-15.1c20.7-11.5 46.5-28.6 83-26.4l-12.1 8.8c1.1 1.2 1.6.1 2.1-.2 13.8-9.4 11-8.9 17.2-8.5-4.7 5.1-10.7 7.7-16 11.5 1 1 1.6.1 2.2-.2 20.7-11.7 10.4-11.9 27.2-10.6-1.8 2-4.1 2.7-5.3 5.5 2.3-1.5 4.5-2.3 5.9-3.8 2-2.3 4.4-1.9 7.1-1.6-.6 1.8-2.9 2.2-2.8 4.2 3.4-.8 4.9-6 9.6-3.9-1.8 3.2-5.3 4.6-7.8 8 7.6-2.8 7.2-8.9 16.1-8.2a114 114 0 0050.7-9.3c18-7.1 20-6.7 28-7.4-.9 1.3-37.9 28-40.2 29 2.7-4.1 5.7-7.7 7.5-12-1.6-.6-.1-.2-9.7 11.6a21.4 21.4 0 01-7.5 6.2c-3.2 1.5-19 9-21.1 7.4 5.3-4.5 10.7-9 13.7-15.7-1.2-.6-1.4.2-1.7.7-8.5 11.3-18.6 20-33.4 21.5-9.8 1-13 2.2-18.6 2.2 9.9-5.8 18.9-11.5 25-21.1-1.8-.2-2.2 1-2.8 1.7a72 72 0 01-16.3 13.7c-12 8.1-24 6.3-38.6 3.6a82 82 0 0032.3-18.7l-.5-.8c-16.7 11.1-30 22-52.8 17.2-3.5-.7-7.1-.4-11.4-1.9 11.3-2 19.4-8.3 27.7-14.3-3.7.9-7 2.7-10.1 4.8-15.2 10.2-26.4 8.5-47.7 8.5.1-1.1.7-1.3 1.1-1.5zm172.7-36.8c-39.6 17.8-86.4-3-136.3 14.7-14 4.9-26.7 12.4-39.3 20.2-15.3 9.4-3.5-.9-32.2 12.5-1.3.6-7.8 4.8-4.7 7.5 2.6 2.3 4.7 3.3 6.4 1.6 4.4-4.4 13.8-7 19.7-8.5 4.2-1 8 0 10.9 3 5.9 6.3 12.4 12 18 18.6 10.6 12.6 40.7 25.6 75.5 20.5 90.6-13.2 102.4-62.3 120.8-93.4 7.2-12-23.2-3.6-38.8 3.4"
            clip-rule="evenodd" />
        <path fill-rule="evenodd"
            d="M806 544c-2.6-1.7-4.5-3.8-7.8-5 2.3 3.2 5.3 5.1 7.9 5zm-13.4-4.3l.5-.5c-2.5-2.3-5-4.6-8.2-6 2.1 2.7 4.6 5 7.7 6.5zm29.3 10.2c-2.5-1-4.3-3.4-7.5-3.9 2.3 2.8 3.8 3.7 7.5 4"
            clip-rule="evenodd" />
        <path fill-rule="evenodd"
            d="M792.6 539.7c1 1.5 2.6 2.2 4.1 2.8l.4-.7-4-2.6-.5.5zm96.5-53.8c-3.2 3.3-6.8 6.4-10 9.7 4.5-2 8-5 10-9.7zm-100 5.5c3.2-1.6 6.2-3.6 9.7-4.8-4-.2-7.3 1.4-9.7 4.8zm120-4.5c1.8-1 2.8-2.6 3.9-5.2a7.3 7.3 0 00-4 5.2zm-208 457c-6.3-2.6-33-19.8-38.3-23.4-6.1-4-19.7-10.2-30.7-25.3-2.1-3-5.5-4.9-7.2-8.3-5.4-4.4-23.5-31.3-22.3-34.6 4.2 5.8 7.1 12 11 17.5l11.7 16.7c6.8 5.2 18 20.9 35.6 29.7l1 .7c10.6 9.4 32.6 22 38 23.7 1.8.6 2 1.7 1.2 3.3zm-124.7-51.4c-28.6-34.3-20.4-53.2-30.6-81.5-.8-2 .1-2.4 2-2.2-1-2.1-3.6-2.3-4.3-4.3-.6-1.8-1.9-3.3-2.3-5 1.1-1 2 .7 3-.4-7-3.1-8.7-10.1-12.2-16 13.5 8.3 27 16.5 37.5 28.6-4.4-.8-7.7-3.6-11.6-5.7-.5 1.4.5 1.7 1 2.1 8.6 7.2 14.2 5 20.3 13.4 3.9 5.4 12.7 16 12.3 19-20.1-10.2-15.9-7.3-32.1-21.4-.3 1.6.6 2.3 1.3 3 18.2 18.6 30.8 16 37.5 28.2l9 16.5c-8.3-4-15.8-7.5-22.3-12.8-3.2-2.7-10.9-8.1-15-8-.1.8.5 1 1 1.3a62 62 0 0115.2 9.6c7.1 5.6 18.8 9.5 24 14.7 1.5 1.4 2 2.3 10.4 14-22.8-5.1-26.8-10.4-35-13.6 18.5 16.5 33.1 8.8 44.7 24.5 1.4 1.8 3 3.5 4.6 5.3-1.7.7-9.1 1.1-12.4.7-4.2-.5-7.7-3-11.8-4 12.8 10.6 24.3 3.1 28.5 7.7 4 4.3 9.2 7.2 13.8 10.7-.8 2.6-54.7 1.9-76.5-24.4zm10-99.7c3 1.3 2.7 2.8 4.8 7.2.4.9 0 2.2 1.4 3 .7-2.3-1.7-5.1-1.5-8.2 2.9 4.1 2.3 8.8 5 12.9-.4-4-1.1-7.3-2.1-10.7 14.9 5.5 36.5 32.6 43.1 54l-4-3.4c.4 1.7 2.2 4.8 3.5 5 3 .6 2.5 3 3.6 5.6-3-2-3.7-5-7.2-6.2 9.5 12.4 9 10.2 11 17.3 5.6 19.3 7.8 33 13.1 42-1.2 1-1.6 0-2.2-.4-4-2.8-7.6-6.2-11.5-9.2-10.7-8.1-.5-19.7-3.2-27.1-1.7 6.8-3.5 12.6-3.7 18.6-1.1.6-1.6-.2-2.2-.7-7-7-10.7-9.4-10.9-19.2 0-4.3 2.5-38.2-3.5-44.1-1 1.4 0 2.5.2 3.5 4.3 18.9-.1 36 1.5 44l-.8.2c-12.3-18.4-16.2-23.2-14.8-34.6 1-7.4 1.7-15 .2-22.4-.8-4.1-1.2-8.3-4.2-11.7 5.7 24.5 1.2 27.4 2.2 41.4-1.5 0-.7.3-12.4-15.7-.9-1.3-1-2.8-1-4.3-.3-5.9-2-25.6-6.7-28.5 2.9 8.9 4.4 18 4.7 27.7-2-1.6-3-3.4-4.2-5-7.5-9.1-9.3-8.8-10.7-15-.9-4-2.5-7.8-4-11.6-.6-1.5-1.1-3-3.6-4.4a60.6 60.6 0 015.7 16.9 217.4 217.4 0 00-36.2-28c10.4-3.7 38.3 5.6 50.6 11zM700 936.5c-16.4-5.6-24.2-13.1-34.3-20.4-6.8-4.8-9.8-12.8-11.9-20.5-2.7-10.2-4.8-20.6-8-30.7-8-26.7-20.7-50.5-48-69.3-21.3-14.5-43.3-17-68-18.5-2.6-.2-4 2-2.9 4.4 5.2 11 15.2 13.2 22.6 57.2 10 58.5 38.2 76.8 82.3 81.4 39.7 4.2 8.8-9.1 68.8 27.3 2.5 1.6 3.6 1 4.2-2 1.3-6.6-2.3-8-4.8-8.9z"
            clip-rule="evenodd" />
        <path fill-rule="evenodd"
            d="M582.3 891.5a68 68 0 01-14-18.4c-5.6-11.2-4.8-12.5-7.6-13a73.7 73.7 0 0022.7 33.7c-.2-1.6-.7-1.9-1-2.3zm14 6.2c-4-3.2-7.8-6.5-11.8-9.6 3 4.5 6.8 7.8 11.8 9.6zM554 835.3c2.2 1.2 4 3.2 6.8 3.2-2.1-1.4-3.9-3.5-6.8-3.2zm-3.5-11.1c1.3 2 3.4 3.1 5.7 3.9a9.1 9.1 0 00-5.7-4zm3 14.3c2.2 1.7 3.7 3.2 6 3.4-1.4-1.8-3-3.2-6-3.4zm77.4 2.9c-.2 0-.6 0-.6.2-.2.6.4.9.8 1.2.8.6 1.4-1-.2-1.4zm45.4-469.8c.1-1.6 2.1-2 2.2-4.3-4.9 3.7-7.7 9-13.6 11.1-5.2 1.9-9.8 5.8-16 6.2 1-5.6 7.4-10 8.6-13-4.7 2.5-8 6.6-10 11.4-1.3 3.1-2 4.6-27.2 11.1-1 .3-2.1.6-3.7 0a20 20 0 0110-9.3c19.8-8.4 31.1-14.3 31.1-14.3 15.4-9.8 31.2-19 50.3-21.3-6 6-27.3 21-31.7 22.4zm24.4-8.2c-16.8 29.8-43 61-76.6 66.8-13 2.2-26 3.2-39.1.7-8.5-1.6-17.1-2.5-25.2-5.5-22.8-8.4-32-6.9-37-7.3a68 68 0 0149.1-1.3 77 77 0 0021.2 4.3c.5 0 1 .1 1.6-.7-3.5-1.7-7.3-1.2-10.9-2.2-19-5.4-9.5-4-33.4-7.6 9-2.6 27.6-5 38.5-1.8 21 6 25.5 5.3 34.8 4.5-6.6-1.5-13.3-1.4-20-2.8-6.5-1.5-12.7-3.8-19.4-5.2 18-3.2 17.1-3 18-3.4 14.4-5.4 16.5 4 52-2 .5 0 .9-.2 1-1.1-12.4.8-24.8 3.2-37.5 0 4-2.7 8.4-2.3 23-8 5.1-2 20.2-.2 28.9-4.4-6.3 0-12.5 2.1-19.7 1.2 22.5-10.4 15-8.5 20-8.6 3.6-.1 7.3-.2 11.3-2.2-3-.3-5.3.9-8.2 0 5.7-4.4 11.8-7.4 17.4-11.5 5.5-4 10.4-9 17.2-12.4-2 4.2-5 7-7 10.5zM586 402c.8-.2 1.8-.5 2.8.1-.2.8.2.8-17 3-48.1 6-57 14.4-64 16 19-15.4 63.7-16 78.2-19.1zM575 388.4c5 .8 10.2 1.3 16 2-19.3 13.7 0 9.2-40.2 13.7 5.2-5.3 11.6-7.8 17.4-11.5-1.3-.7-2.2 0-3 .3-4.6 2.3-9.5 4.5-13.4 8-7.8 6.8-14.7 5-25.7 8.8 1.2-2.9 2-3 10.6-10-1-1.4-1.6-.4-2.1 0-9.8 6.7-12 11.6-21.8 14.8 16-16.6 39.8-29.7 62.2-26.1zm19 13c-1 .6-1.8.6-2.7 0 .9-.6 1.7-.7 2.6 0zm-10.6-1.4l-.4-.8c5-4.1 9.3-9.2 16.9-9.3 5.5 0 11-1.2 16.5-2.6 1-.2 1.9-.5 3 0-1.8 2.5-4 4.7-5.7 7.4-1.5 2.6-24.9 4.7-30.3 5.3zm11.8-19.1c-3.2-2.5-7.2-2.8-10.8-4 .3-1.9 1.8-1 5.1-1.8 18.3-5.2 20.8 2.4 32.3.8-4.4-1.9-9.3-1.6-13.7-3.8 9.2-1.4 18.4-4 28-1.9 0-1.9-1.8-1-2-2.5 12-2 24-5.3 35.8-8.3-22 12.3-42.8 27.6-77.7 27-2.9-.1-31.4-1.2-33.5-2.9 22.9-10.3 24.6-3.8 36.5-2.6zm-91.2 57.3c5.2 1.1 10.8-.6 15.3 5.2 2.2 3 5 5.3 7.4 9.2.6-4-2.6-4.8-5.8-10 9.5 3.2 13.5 10.7 15.4 20 1-1.8.6-2.8-1-9.7 7.5 2.7 10.3 5.5 12 12.5.2 1 .2 2 .2 2.9 0 2.1-1.8 1.6-3.8.5-16.2-8.4-16-13.3-24-22.1-7.4-8.2-12.5-7.2-18.5-7.2l-.1-.6c1-.2 2-1 3-.7zm46 3.8c8.3 7.2 20 18.8 31.8 18.5a26.8 26.8 0 01-16.3 1.7c-2.9-.4.8-1.9-1.3-2.2-4.2-.7-4 2.7-20-5.3 4.5-.8 8.3.1 11.6-1.7-19-1.4-14.8.9-25.2-8 4.2-2 8.3-.5 12.2-.9.2-1.2-.6-1.2-1.3-1.2-2.4-.1-5-.7-7.3-.3-5.3 1-9.6-1.1-14.2-3.8 3.9-1.6 7.9-.2 11.4-1.8-8.6-1.5-17.4 1-26-1.2 3-3.2 27.3-9 44.6 6.2zm38.2 19c-6 9.1-28 14.8-39.5 9.4 1.4-4-.6-7.4-1.8-11.5l9.9 3.3c2 .7 1.4 6.7 8 7.4-2.3-1.4-3.9-3.3-5.3-6.5a44.8 44.8 0 0028.7-2.1zm-96-23.2c0-3 2.2-4.8 4.2-6.7-.7 2.6-2.8 4.4-4.2 6.7zm-6 6.6c.6-6.6 2.4-12.8 4.4-19-1 6.4-.8 13-4.3 19zm86 81.4c.8-.4 1.6-1.1 3.4-.3-25.6 11.3-40.4 16.7-60.8 27.8-10.3 5.6-27 19.4-30 28.8-.4 1.2-.7 2.6-2 3.7-1.3-27.6 63.2-49.5 89.3-60zm-81.5 36.4c49.7-85.7 86.3-54.8 151.7-104.8 8.6-6.5 15.8-14.7 23.4-22.3.6-.5 1-1.3 2.2-1.4-4.3 13.3-12 24.4-20.4 35.4-1.1-1.7 1-3-.2-4.5-3.8 3.3-1 6.8-6.3 12-10.2 10-10.7 11.4-13.6 13 .6-4.6 3.5-8.3 2.6-13.2-1.7 1.3-1.4 3-1.8 4.3-3 11-5.4 15.7-27.5 29l-1.8.6c5.1-7.4 10.5-14 12-23.3-1.7 1.3-1.8 2.8-2.3 4a61.3 61.3 0 01-16 22.5c-3.4 2.9-1.8 2-25.9 12-.3.2-.7.2-1.8.3 14.7-19.7 11.1-18.3 22-27.3-1.2-1-2 0-2.6.5-18.6 14-9.5 27.6-48 38.4 9.2-10.2 15-22.1 25.8-30-3.4.9-6.1 2.8-8.3 5.3-23.2 27.8-13.4 23-42.3 37 4-8.6 9.6-15.3 16.5-21.3-1.6-1-2.2 0-2.8.5-14.5 12-10.1 18.8-28.2 30.4-2.8 1.8-4.6 4.6-7.5 6.6-.6-1.6.5-2.7 1.1-3.7zm181-129.7c3.2 5.9 2.8 8.3-1.8 14.5 2.5.5 2.8-2.5 5.1-2.8l-3.7 5.6c2.4.2 2.2-2.3 3.6-2.8 2.5 3.4-1.9 4.6-2.3 7.1 1.4.8 1.6-1.2 2.9-1.2 2.7 3-1.7 24.3-2.4 28-2 9.8-9.5 12-13 15.3 3.5-.3 6-2.7 9-4.4-1.5 4.8-6.6 5.8-10 9.1 3.1-.1 4.9-2.4 7.3-3.3.7 1 .5.6-3.8 9-3.6 7-31.9 16.6-33 18.2 10.1-2.3 19.1-7.5 28-12 .7.3.8.6.7.9-5.4 8-11.3 15.5-18.5 21.9a138 138 0 01-48.7 25c-45.3 12.2-60.9-1-86.7 5.2-.8.2-1.5.5-2.6 0 5-6.2 17.9-14 29.8-16 3.6-.5 27 0 31.5.3 2 .2 4 .3 6.4-1.1-12.7-.8-24.9-1.6-37.6-1.1 2-2 4.3-2.7 6.3-3.5 35.4-15.6 42.3-4.3 65.9-11.7-13.8 1.3-27.7.7-41.6 1.6 4.6-2.4.9-1.2 31.6-13.4 5.6-2.3 11.6-3 17.5-4 11.2-2 33-9.3 34.6-12-.5-.5-1-.5-1.5-.2-20.6 9.2-35.8 10.6-51.4 14.3.5-1.5 2-1.6 2.8-2.1 10.3-5.5 18.8-13.3 31.3-17.6a87.3 87.3 0 0028.7-17.6c-5 1.7-19.1 13.8-32.5 17-.6-.2-.7-.5-.5-.8 29.7-27.3 35.5-21.8 44.8-37.7a102 102 0 01-22.3 16c25.3-33 17.3-26.7 26.1-43.7zM487.1 672.8c4.8 67 8.5 63.6 5 63-1.8-.1-.3 2.5-2.4 2.6l-1.4-22.4c-1.7 2-1.6 1 .2 22.3.1 1.6 0 3-2.1 3.8-2.6-9.1.5-5.5-.5-14.8-.8-8.8-.7-17.7-1.3-26.5 0-1.4.5-3-1.4-3.8-.6-.3-1.8-20-1.8-20.7-.6-11.5.6-4.2.7-15.4 0-2 0-4 .3-6.1.5 8.3 0 16.7 1.5 25.2 1-1 .7-2 .7-2.8-.5-8.6.7-25.8-2.3-28.4-1-1-.7-1.7-1.2-14.2-2.6 2-.4 4.6-2 7.3-.4-5.3-.8-9.9-1-14.4-1.6-32.8-4-31-1.4-35.3.7 2-.5 4 1 6.1 1.8-2.8.5-5.8 1.5-8.7.3 5.9.1 11.4.6 16.9 3.2 38.5 5.4 40.5 7.3 66.3zm-18.9-70c-4.7 4.5-12 10.5-18.4 8.8 2.7-1 3.8-4.6 7.4-4.3 1 .1 1.4-1.9 1.7-3 .7-3.3 2.2-6.1 3.8-9.4 2 2.3.4 4.8 1.4 6.8 4-.8-2.8-10.2 3.5-18 1.6 2.9.7 6.3 2.2 9.4 2.6-7.7-4.5-14.1 5.9-17.7-5.5 10.9 1.5 18.7-7.5 27.3zm3.7-29.2a38.4 38.4 0 01-10.3 9c1 1.3 1.9-.2 2.8.2 0 3.6-2.8 4.8-5.4 6 .6 1.7 1.8-.2 2.3.8.4.7 0 1.6-.3 2.3-1.2 2.9-5.3 15.2-10.2 15.2 9.6-14 4-30.4 21.1-33.5zm-18.8-1c-11 9.7-15.4 24.8-23.5 35.3-16.8 22.1-44 16.2-45.6 12 4.6-1.8 9-4 13.7-6.3-.4 2.4-3.2 2-3.5 4.2 3.2-.7 5.7-2.6 7.4-4.8 2.7-3.3 4.2-4 16-14 .3 4-.1 4.9-7.6 13.5 11.2-5.2 8.1-14.9 13-19.5 3.4-3.2 6.2-7 10-10.8-.5 5-2.3 9.4-2.4 13.8 1.4.5 1 1.2 4.4-15 .2-.8.3-1.7.9-2.3 2.5-2.6 5-5.2 8.4-7.3 1 2.4-1 4.5.2 6.7 3.2-3.1-.7-7.4 4.6-9.8 8.4-4 17.4-5.5 25.3-.8-4.2-.2-12.1-3.1-21.3 5zm-56.4 29.3c25.2-45.7 66.8-42.7 69.6-39.4-4 .2-8-.2-11.7 1.4-10.5 4.5-19 4.6-23.7 8.2 3.9.1 6.4-2.4 10.5-1.9-3.3 2.8-5 6-9.1 7a46 46 0 00-17 9.5c2 .2 3.4-1.2 5-2.1 7-4 3.5-2.3 11.6-5.7a42.6 42.6 0 01-26 19.3c3 1.4 7.3-1 10.3-2.2-3.4 6.3-19.3 17-31.8 21.1 4.5-5.4 9.3-9.6 12.3-15.2zm61.7-52.1l-.3-.1v-.2c-2.8-.4-4-3-6-4.3 2.7.3 4.3 2.4 6 4.3h.1l.2.3c3.8 1.9 7.2 4.4 9.6 8 1.1.3 1.8 1.1 2.4 2.5-1.6-.3-2.2-1.2-2.4-2.5-.7.2-1.4.2-1.9-.3-2.5-2.7-5.6-4.7-7.7-7.7zm-67-7.8c-36.6-13.3-49.8-24.3-63-59l-.5-2.3c3 .6 4.5 3 7.2 2.7-2.2-1.4-4.3-3-6.6-4.4-1.1-.7-2-1.4-2.4-2.7-9.2-25.2-8.2-21.9-8.2-23.1 1-1.1 1.8 1 2.8.1a1.6 1.6 0 00-1.2-1.4c-3.5-.8-4.1-3.8-5.1-6.6-8.7-23.3-14-24.9-18.8-40 3.2-2.1 34.1 35.5 45.9 46.1-3-.7-15.2-7.4-17.4-8.8-2.7-1.7-5.2-3.8-8-5.3 7 8.6 27.1 16.1 31.5 19.7 26 21 24.4 19.5 24.2 20.6a92.5 92.5 0 01-39-14.9c1.3 3.3 17.8 13.3 36 16.2 8.4 1.4 9 3.4 28 20.4a124 124 0 01-35.3-8.5c3.4 4.5 20.7 8 26.6 8.7 13.6 1.5 16.5 6.8 28 18.8-11.2-1.8-22.5-3-33.5-6.2 4.1 2.6 8.7 3.8 13.3 4.6 26.2 4.9 18.1-.2 41.3 19.2a85 85 0 00-15.9-2.2c-5-.3-9.8-1.6-14.8-1.8a53.4 53.4 0 0017.4 3.7c17 .6 23.4 9.2 30.3 14.7-17.8-4.2-34.7 1.9-62.8-8.3zm4.5-47.7l-.7.8-19.7-17.7.5-.8c7 5.6 13.8 11.2 20 17.7zm20 19.5c-4.3-3.7-8.7-7.1-12.1-11.6-2.5-1.3-4.1-3.5-6-5.4 2.5 1.2 4.7 2.8 6.3 5a46 46 0 0111.7 12zM299.2 401.6c53.2 21 28.7 9.5 43.5 25.2-.9-3.3-3-6-4.6-9.4 2.9.2 5 1.4 7.3 2.2 48.3 17.4 80 30.7 102.5 96.7 3 8.8 5.2 17.8 9.5 26 .9 1.7 1.7 3.3 2 5.3-5.4-4.2-11-8.2-16.3-12.8-7.6-6.7-6.4-15.2-14-32-.6-1.4-1-3.1-3.4-4.4 4.6 10.4 7.5 20.7 11.4 31.5-5.7-3.7-16-14.3-16.8-15-10-9.4-6-30.4-31.2-56.4-.5-.4-.9-1-2.4-.7 10.2 11.6 18.4 19.6 26.1 49.3-18.7-17.4-16.2-14.6-17.9-18.2-2.3-5-5.1-9.5-8.6-13.8 1 4.4 4.5 7.7 6 13.1-5.4-5.4-11-9-15.6-13.8-5.4-5.8-12.3-34.8-21-38.5 7.7 10.1 11.4 22 16.3 34.2-5.2-2.7-11.5-9-15.2-10.7a22 22 0 01-11-13.1c-2.4-6.2-8.6-16.6-14.7-19.2 1.2 2.6 12.5 12.8 13.6 22.5-7.7-4.4-26-25.4-30.2-30.2-13.2-14.8-11.6-11.3-18.5-18 1.3-.8 2.2-.2 3.2.2zM482 571.2c1.2 4.1-.6 7.7-1 11.8-4.7-4.4-3.1-6.6 1-11.8zm-.3-78c1.5 4.5-.6 67-2.5 75.6-1.4-41.9 1.7-40.3 2.5-75.7zm1.3-26.7c0-.5.2-1 .7-1.3v-.2c0-1.4-.2-2.8.3-4.9.4 2.2.6 3.6-.3 5v.1c.7 5.2-1 12.7-1.2 24-1-7.6 0-15.1.5-22.7zm-13.6-48.9a236.8 236.8 0 01-21.6-29.2c1.5 1 3 2.2 3.2 4.2 3.7 3 11.1 15 18.4 23.5.3.3.3.8.4 1.1 2.1 2 4.6 3.8 5.3 7a15.3 15.3 0 01-5.7-6.6zm-4.2.8c-9.4-3.2-19.1-5.5-28-10-14.1-7.2-17.8 2.8-50-51.7-3.1-5.3-6-10.7-8.5-16.3-3.5-7.6-13.8-51-13.9-61.4 5.4 5.8 9.4 12.6 15 18.2 5.4 5.5 10.7 11.2 15 18.2-5.1 0-8.6-2.6-11.7-5.9.4 4.3 6 6.6 10.2 7.7 3.3.8 5.7 2.5 7.4 5.4 11.1 17.7 13.7 16.8 12.6 19.1-17-6.6-17.8-5.6-26.8-16.3 8.7 19 26.2 11.6 35.7 26.3 7.5 11.4 10 13.2 10.4 16.3-3 0-5.4-1.7-8.2-2.2-16-3.4-21.1-7.5-26-12.6l-.4.3c4 8.8 17.7 12.4 27.7 14.5 7 1.5 12.2 5.1 14.5 12.3.7 2.1 2.1 4 3.5 6.7-31.9-6.4-17-4.5-29.3-8.6 11.4 12.3 27.8 4.4 34.7 17 2.5 4.3 6.6 7.6 9.4 12.6-7.7-2.3-15-4-22-7.2 1.1 2 3 2.8 4.8 3.6 9.9 4.7 19.2 2.9 25 13.7-.3.5-.7.4-1 .3zm-81.5-60c8 12.6 17.1 24.3 24.8 37-12.5-9.5-19.3-22.8-24.8-37zM371 278.3c8 4.6 16.7 8 25.2 11.8 7.6 3.4 14.7 7.9 22 11.9 5.6 3.1 7 10.6 10 14.1-.3-3.6-2.4-6.5-3.8-10.3 10 4.4 28.7 22.6 39.1 47.5 7.8 18.6 9.8 57.9 9.3 62.9-2.8-1.7-9.2-11.2-13.6-17-5.2-6.7 2.4-27-7.1-50.8-.2-.4-.4-1-1.7-1.2 6.4 14.9 4.8 30.3 4.8 45.7-3.9-4.8-8.9-8.8-8.5-16.2.5-10.4-.2-30.5-7.2-38.1 5.4 12.9 5.7 26.4 5.2 40.1-5.2-7.4-10.8-14.5-13-23.7-4.4-19.7 1-15.2-12-38.9l-.8.6c2.2 6.5 6.7 12.1 8 19 1.2 6.8 1.6 13.5 3 20.2-19.3-19.5-10.2-21.4-16-30.6-.4 4.4 1.2 7.9 1.6 12-3.8-3-6.4-7.8-12.2-15.1-4-5.2.4-15.7-9.3-26.6.8 4 3.6 6.7 4 10.2.4 3.4 1.7 6.6 1.6 10.1a287.6 287.6 0 01-31.5-38.6c1.3-.6 2 .5 2.9 1zm130.2 98.2c-.1 3.6-1.2 7-2 10.4-2.2 9-2.3-1 2-10.4zm4.9-102.3c5.6 12.4 8.3 25.4 9.3 38.8-5-12.4-3.7-9.7-9.3-38.8zm-26.5-19a106.6 106.6 0 01-10.7-44c2.3 1.6 2.6 4.2 5.3 6-1.9-4.4-4.4-7.6-4.9-11.7 2.7 3.7 4.8 7.8 8.4 10.8l.4-.3c-3-4.3-5.4-9-8.7-13.1-.7-1-.5-2.2-.3-3.2.7-4 .3-8.1 1.8-12 1.5-.2 1.4 1.8 2.6 2 .5-.4.5-.8.2-1.1-4.6-6.1 1-10.8 5-37.5.1-1.4.5-2.9 1.2-4.7 3.4 7.7 5 15.5 5.7 23.5-2.5-1.2-2.5-1.2-3.8-5.8-3.8 7.2 4.5 2.6 5.5 19.2.2 3.4.6 6.8.4 10.7-3.7-2.1-5.2-5.5-6.9-9.4-.9 2.4.2 3.9 1 5.3 6 11 5.6-4.2 8.9 29.3-4-1.7-6.5-4.7-9.5-7.2-3-2.4-3.8-6.4-6-9.5.6 5.4 2 9.2 11.2 16 8 6 4.4 8.5 8.5 22.1.2.8.4 1.6-.1 2.5-13-4.1-16.2-13.6-18.3-18.6-1.4.5-1 1.2-.9 1.8 6.4 19.6 20 13.7 22.2 25.5.7 3.6 1.9 7 2.5 10.9-5.3-4.4-11.9-6.6-16.3-11.8-1.3 1-.7 1.6-.3 2 7.4 7.2 18 9.4 20 21 1.1 6 2.9 12.1 3.5 18.4-9-15-18.7-16-27.6-37zm8-103.6C522.8 199.9 528.7 218 518 266c-1.4 6.3-3.6 12.4-4.4 18.8 0 .5-.3 1-1 1.3-.7-1.4-1-2.8-1.2-4.3-2.6-13.7-3.7-16.8-.7-23.7 6.2-13.9 6-14.3 5.6-16.5-7.2 16-9.7 19.6-9 27.4-12-25.3 2.5-31.1 5.4-53.1.5-3.7.8-7.4-.3-11.2-1.6 11.5-.7 14.7-7 29-1.8 4.3-4 8.4-4.7 13.4-3.5-12.6-6.5-19.1.2-36.1 2.9-7.4 3-15.2 3.4-23 0-.2-.1-.8-1-.7-2.5 15.9 2.3 4.1-7.8 34.4-1.6-3.7-1.7-7.1-2.4-10.5-3.5-17 4.3-20.5 2.1-28.2l-3.8 12.9c-1.6-5.5-1.5-10.4-2.4-15.2-.9-4.8.9-9.3 1.6-14-2 .1-1.2 2-2.3 2.4-.3.2-.5 0-.6-.3-1.1-7.5-3-14.8-4.9-22.5 1.6 1.8 3.3 3.4 4.7 5.3zm33.6 177.7c-3.5 3.8-6 8.2-8.6 12.6-.4-3.7 3.7-10 8.6-12.6zm43.7-41.3c27.3-15 46.9-9.3 80.7-24.7 13.3-6 19.8-5.2 32.3-5.9-10.7 6-20.7 13-31.4 19l5.9-8.4c-6.2 3.1-9.2 15-32 20.2l14.7-16c-3.4 0-10.5 10-20.1 17-.7.5-1.3 1.2-2 1.4-6.7 1.9-13.4 3.6-20.2 5 8.3-6 15.4-13 23-19.6-1-1.1-1.6-.3-2.1.2-14.8 12.6-24.8 23.6-47.9 27.5 6.3-5 12.3-10.3 18-16.6-2.3.2-3.3 1.5-4.4 2.7-10.5 11-27.8 21.2-30.8 20.3 3.4-3 7.3-5.6 9.6-9.8-27.8 20.3-7 7.7-36 24.3a159 159 0 0142.7-36.6zm84.1-29.9c-19.7 9.9-40.7 15-63.1 18 39.8-18.8 62-19.7 63.1-18zm18.5 13.7l-.6-.7a31 31 0 0113.2-10.4l-12.6 11.1zM666 268c-12.9 14.8-12.5 19.8-28.1 30-9 5.9-18.2 11.6-28.4 15.5a102 102 0 01-44 3.6 65 65 0 00-14.8-.6c-1 0-2.1.3-3.3-.5 9.8-7 20-5.2 30.4-2.6-4.4-2.3-8.9-4-14.5-3.7 4.4-3.2 10.3-3.3 16-5.4 6.5-2.3 11.6 6.9 27.4 2.6-3.3-.7-13 .3-20.5-4 3.8-2 7.8-2.3 11.4-3.8 18.3-7.7 21 3.1 35.5-4-6.2.6-12.3 1.9-19.1-.8 26.7-11 23.2-10 33.5-12.3.8-.2 1.7 0 2-1-.5-1.5-2 0-2.8-1.2 6.3-4.4 12.7-9 19.5-13 .4.7 0 1-.2 1.2zm-53.3 54c1.9-2 4.8-2.3 6.7-4.4-1.1-.8-1.8 0-2.4.3-10.2 5.4-14 2.3-14.5 6-.4 2.2-31 2.4-41.6-2.3 15-4.2 46.2 13.4 93.2-33.3a74.9 74.9 0 01-41.4 33.6zm-68.1-145c.8.1 1 1.6 2 1 .6-2.4-2.1-4.4-1-7 1.6-.5.7 2.2 2.5 1.6.6-2.6-2.4-5.1-.4-8.2 1.8 2 1 5 3.4 7-3.3-17.1-2.3-9.8 9.1-36.6 2.3 3.8 2.2 29.3-.1 44-3-5.9-2.8-11.6-2.5-18-4 3.6-.8 14.8 1 19.8 1 2.6 1.8 5-1.8 21.4-1.4-4.1-2.4-8.3-4.1-12.2-1.7-3.9-1-8.3-1.8-12.5-3.7 12.2 4.5 14.6 4.1 31.7 0 3-.5 6-1.9 9.1-2-5.7-3.8-11-5.3-17.3-1.6 5.8.8 8.6 2.7 15.2 2.2 7.7 1 11.3 0 19.4-1.9-20-11-45.8-6-58.3zm18.3-42.2c-.1-.6-.4-1 .5-1.5 2.3 4.3 4.4 8.6 5.3 13.4 2.8 15.5 9 37.3-.5 54.6-14.2 25.8-12.8 26.8-14.6 27 1-8.5 3-16.4 8.4-23 2.2-2.7 3.7-5.8 5.5-8.7.4-.7.8-1.4.2-2.5-2.2 1.8-2.7 4.7-4.2 6.8l-5 6.8c-.8-3.9 1.5-9.8 1.7-12.4.5-7.4 3-14 6-20.7.6-1.2 1.3-2.4.5-4-2.2 2-1.6 5.5-4.2 8 0-12.2 3-32 .4-43.8zm.8 81.5c1-2.5 1.8-5.2 3.5-7.4v-.1l.2-.1c.7-2 1.4-4.2 3-5.7 0-1.7 1.2-2.6 2.5-4.5-.3 2.4-1 3.6-2.3 4.6a8.5 8.5 0 01-3.2 5.6l-.1.1v.1c.1 3-2.2 5-3.6 7.4zm46.8-41.4c-.5-.2-.9-.4-1-.3-7.8 9.7-24.7 15.9-32.5 23.7-1-1.3 0-2 .2-2.8 9-23.1 17.1-13.6 35.2-38.1.5-.6 1.2-1.3.5-2.6-15.8 19.3-13.6 14-25.5 23-.6-2-.1-1.8 7.2-13.9.7-1.1 1.7-1.7 2.7-2.4 6.3-4.5 11.4-10.2 16.5-16 .4-.5.8-1 .5-2.2-5.2 4.8-9.4 10.6-15.6 14.9a17 17 0 012.8-7.4c1.9-3 2.7-7 6.2-9 .2 0 .5-.4.4-.6-.5-4.8 3.5-7.6 5.2-11.4 1.7-4 4.1-7.6 6.5-11.2 1 .3.8 1 .7 1.4-2.3 17.8 6.2 36 .6 41.2-2.6 2.3-4.1 5.8-6.1 8.8 3.8-1.4 4.3-5.5 7.3-8.3a57.4 57.4 0 01-12.2 30.6 107 107 0 01-22 20.7c-6 4-26 19-30.8 24.4-1-.8-.3-1.5 0-2.1 8.5-25.7 31-25.2 40.6-36.3v-.7c-1-.5-1.5.4-2 .8-10 7.7-14.7 6.6-29.9 18 1.5-3.5 2.9-7.1 5.4-10 17-19.8 32.5-20.4 39-32.2zm-37.6 60c.9-1.1 1.9-2 4.3-2.3-1.7 1.3-2.5 2.4-4 2.7-5.5 5-11.7 9.2-17.8 14 1-3.5 11-11.5 17.5-14.3zm41.5-12.4c.8-.3 1.7-.8 3.1 0-7 5-14.5 8.6-22.6 12 .5-1.7 2-2 2.5-3.5-4.7 1.4-9.3 7.3-17.8 9.2 2.7-3.6 6.2-5.4 8-8.9-1.8-.7-2.3.8-3 1.6-7.6 8-21.2 15.7-22.7 14.8 1-1 19-15.1 27.6-21 8.7-6 13-.3 24.9-4.2zm4.8-5.6c-3 2.7-10 4.1-15.5 3.1a85.3 85.3 0 0115.5-3.1zm-23.6 27.8c-10 4.1-20.7 4.4-31.3 5 7-6.2 22.2-2.7 24.8-6.3l-11 .7c11-6.9 12.3-1 27.2-7-4.4-.9-8.5 2.1-13.6 1 11.8-6.4 12.9-4.5 16.4-5.9.7-.3 4.1.6 1.6-2.3-.3-.4.8-.9 1.4-1.2l8-4.8c-2 6-14.7 17.2-23.5 20.8zm-46.6 3.6c0-1.7 1.4-4.6 1.8-3.1-.1 1.1-.7 2.1-1.8 3zm158.1 98c-18 1.9-22.5 8.4-64 15.7-72.5 12.7-110 17-150 68.2-1.2-6 14.5-67.3 23.2-85.9 21.4-46 48-2 100-20.6 33.5-12 41.5-38.5 53.7-49.6 9-8.4 22.6-21.2 13.1-20.4-34.3 2.6-53.1-9.5-128.9 37.8-11.1 7-21 15.7-29.8 25.5-.5.6-1 1.5-2.3 1.6 23-76 33-62.3 66.2-68.9a43.2 43.2 0 0028.1-16c15-20.2 14.2-19.8 11.3-20.1-5.2-.6-11.4 1.3-15.4 1.9-7 1-14 2.7-20.2 6.3-11.2 6.3-19.8 7.3-31.7 17.8-.4.4-.9 1.4-1.8.6 2.7-7.4 33.2-22.8 48.1-37.9 30-30.2 14.5-66.5 17-80.8.5-3 .2-6 .2-9 0-2-1.9-2.3-2.7-1-13.8 21.1 5.1-11-43 72-.4.6-.6 1.6-1.9 1.2 1-28.6-11.6-68.6-17.7-54-12.7 30.5-24.7 50.3-17 79.5 10.2 38.8 6.7 24-19.6 93.4-1 2.4-1.6 5.1-3.6 7.8-5.3-32 3.3-37.1 7.5-79.7 3.2-32.2-15.7-53.8-38.5-85-12.5-17-10.7-.5-14.2 18.1-1 4.8-2.4 9.5-3.5 14.3-9.6 40-2.8 81.3 29 108.4 12.5 10.6 15.3 35.3 13 42.6-20.7 63.6-17.8 68.7-27.4 100-.2.7 0 1.6-1.5 1.7-14-26-2-14.4-11.7-62.7-11.2-55.3-53.3-72.5-104.3-97.4-4.4-2.1-5.5 2-5 6.7 1.3 10.3 2.4 20.6 4.7 30.8 27 117.5 59.8 96.2 95 113.9l2.3.8c13.7 3.4 14.9 14.1 17.8 28 0 0-5.6 79.3-5.6 106 0 .9.5 2-.7 2.7-30.9-27.9-16-55.4-53-100.3-25-30.3-59.2-35.2-99.8-52.2-59-24.8-24-7.2-3.2 59 9.7 30.7 16.1 50.6 42 66.2 52.4 31.5 85.8 8 101.7 25.3a64.7 64.7 0 00-66 35.5c-8.4 15.6-13 18.8-15.3 22.2-7.3 10.7 29.5 21.2 51.7-8.5 15.2-20.4 10.9-28.5 29.3-36-.2.5-.1.8-.3 1-12.3 11-5.5 26-18.5 38.3-2.3 2.3-.4 3 2.9 3.4 13.9 1.8 19.4-5.4 26.7-12.4.3 2.9.7 5.3.7 7.7 1 30.3 4.2 44.1 5.2 81 .7 25.4 2 29.1 2 38.5-.1 6.3.2 12.6 1.3 18.8.8 4.5 4.3 1.4 5.1.4 8.6-10.1 10-11.2 9.4-15.5-1.6-12.8-1.3-25.4-5.7-55.4-2-14-5.6-52.5-5.8-54.6-1.4-24.3-3.9-32.4 3.1-43.2 17.3-26.6 55.4-2.5 99.3-14a125.8 125.8 0 0046.3-21c28.8-22.4 44.2-54.6 44.8-82 .2-8-1-16-2.3-24-3.4-20.3-10.7-7.9-18.7.2-5 4.9-9.6 10-15 14.5-38.1 31.4-93 28.8-130.4 73.6-22.4 26.6-17.5 25.5-28.5 38.8-.2-4.8 0-69.2 3.6-100.2 1.5-13.4 1.4-21.6 11.6-23.5 17.2-3.3 17.1 13.4 32.6 25a46.6 46.6 0 0030.9 8.6 42 42 0 0028-13.5c1.4-1.3 3.2-2.8 2-4.9-1-2.1-3.1-1-4.8-.6-19 4.2-26-12.4-47-23.8a45.8 45.8 0 00-39.8.1l-.5-.7c20.4-23.8 56.8-2.7 71.1.5 32.7 7.3 69.1 2.3 92.7-18.4a239 239 0 0025.6-29.8c23.4-34 27.8-34.1 25.4-38.2-1.1-2-3.6-.8-8.6-.2"
            clip-rule="evenodd" />
        <path fill-rule="evenodd"
            d="M567.5 208.7h-.2v.2l.2-.2zM483.7 465v.2-.2zM458 549.5l.1.2h.3l-.2-.1h-.2zm138.3-3c5.6 2.5 23.1-.3 27.7-4.3-9.4 2.7-18.3 5-27.7 4.3zm16.3 3.4c-7.7.8-15.3 1.7-23 1.6 7.9 1 15.5 1.2 23-1.6zm-88.3 11h17.2c-5.8-.2-11.5-1.8-17.2 0zm95.4-22.3c4.2-.8 8.4-1.2 12.2-3.8l-12.4 3 .2.8zm8.6-6.7c4.2-1.3 8.3-2.8 11.8-5.7L628 531l.3.8zM544.6 558l-7.5-.4c5 2 5 2 7.5.4zm43.3-1.7c2 .1 3.9 1 5.6-.6-1.9-.2-3.8-.5-5.6.6zm81.4-85c2.2-.6 3.4-2.3 4.4-4.2a7.8 7.8 0 00-4.4 4.2zm-304.8 50.5h.1v-.1h-.1zm24.7 13.5a63.7 63.7 0 01-22.5-12.9c-.6-.5-1.3-.9-2-.7 7 7.4 15.2 12.5 25.3 14.5-.2-.4-.5-.8-.8-1zM373.7 523c-4.4-3.5-8.3-7.6-12.7-11 3.4 4.6 7.3 8.6 12.7 11zm11.7-.5c5.1 1.6 10.2 3.1 15.5 3.8v-1l-15.3-3.6-.2.8zm23 3c-5-1.4-9.8-3.6-15-3.7 5 1.4 9.7 3.7 15 3.6zm-67.7-44h.1-.1zm.2 0c3.3 2.6 9.4 4.4 13.4 3.8l-7.8-2.2c-2-.4-3.5-2-5.6-1.6M340.7 481.5l-.1-.1h.1z"
            clip-rule="evenodd" />
        <path fill-rule="evenodd"
            d="M333.6 477l-.5.6c2 2.3 4.6 3.3 7.5 3.8-1.8-2.2-4.8-2.7-7-4.3zm16.2 28c.6 1.7 2.2 2.3 3 3.6-1-2.2-1-2.2-3-3.7zm14.7 16.8v-.1zm-3.9-3.9c1.2 1.3 2.1 3 3.9 3.7-.2-2.4-2.2-2.8-3.9-3.7zm-6.9-35.4c1.2.9 2.5 1.3 4.4 1.1-1.4-1.3-2.7-1.4-4.1-1.5l-.3.4zm-4-1.8v-.1"
            clip-rule="evenodd" />
        <path fill-rule="evenodd"
            d="M349.6 480.6c-1-1-2.2-1.4-4-1.3 1.4 1.3 2.7 1.5 4 1.3zm.1 0h.1zm.1 0c.9 1.7 2.5 1.6 4 1.9l.2-.4a5.1 5.1 0 00-4.2-1.4zm-16.7-3l.5-.5c-1-.9-1.8-1.8-3.6-2a5 5 0 003 2.5zm82.8-11.3c6.4 5.8 11.3 12.9 16.8 20.5a42.8 42.8 0 00-16.8-20.5zm-38.8-19c-2-4.9-3.7-9-7-13.3.8 3.9 4.4 10.7 7 13.2zm-34.7-26.5l6 10.2 1-.5c-2.2-3.5-3.3-7.4-6.3-10.3l-.7.6zm6.9 3l3.9 7.7.7-.4c-.8-2.8-1.6-5.7-3.9-7.8l-.7.5zm62.8 43c2.3 2.1 3.6 5.2 6.5 6.7-2-2.4-3.2-5.6-6.5-6.8zm-88-48.9c-2.2-2.7-3.1-5.2-5.2-7.2.5 3.2 1.6 4.8 5.2 7.2zm95.2 56.8c.8 1.6 1 2.8 2.6 2.7-.3-1-.8-2-2.6-2.7zm219.2-56.3c3 1.8 31-14.8 29.5-19.3a102.1 102.1 0 01-29.5 19.3zm10.6-.2c-8 3.7-16.5 5.7-25 7.5a42.1 42.1 0 0025-7.5zm-212.3-23.3c-4.7-2.8-9.7-4-14.1-6.5 2.8 3.4 9.7 6.4 14.1 6.5zm-10.2-.8c-4-2-7.8-4.3-12-6 3.2 3.5 7.4 5.3 12 6zm-40.4-73.4a15 15 0 006.2 5.4c.5-.2.6-.4.4-.6-1.9-2-4.2-3.6-6.6-4.8zm-5.5 14.9a8 8 0 005.1 4.3c-1.2-2-3-3.2-5-4.3zm-.8-6.3l-3.1-3.4c.4 1.6 1.2 3.1 3 3.4zm16 21.6c.7 1.3 1 2.3 2.1 2.6l.4-.3c-.4-1-1-2-2.5-2.3zM376.4 322c-.3.8.6 1.2 2.2 1.9-.6-.9-1.9-2.9-2.2-1.9zm50.5-13.2l4 8.7c1.5 2.9 1.4 6.4 3.7 8.9a49.4 49.4 0 00-6.8-18l-.9.4zm8 9.5c4.1 10 2.3 7.9 4.5 9.1-1-3.7-1.5-7-4.5-9.1zm-28-19.7a14 14 0 003.6 7.3c-.6-2.7-1.3-5.3-3.5-7.3zm111.2-75.5c-1.7 4.1-3.7 8-5.2 12 2.5-3.6 4.8-7.4 5.2-12zm0-7.7c-1.9 2.8-2.4 5.8-3.3 8.6 2.5-3.2 3.3-5.3 3.4-8.6zm-4.1 50.7c2-1.4 2-1.4 2-3.5-2 2.7-1.4 1.8-2 3.5zm94.6-78.7c2.7-1.4 4.5-3.5 6.8-5.8a13 13 0 00-6.8 5.8zm3.2-7.5c2.4-.9 3.4-3 4.7-4.9-2.2 1-3.5 3-4.7 4.9zm3.5-20.5c2.7-.6 3.6-2.4 4.6-4.3l-.7-.5-3.9 4.8zm2-12c1-.8 3-1.1 2.5-3.5-1.3 1-2.5 1.8-2.5 3.6zm2.1-13.3c-.8 0-1.3 1.5-.3 1.7 1-.2 1.2-1.7.3-1.7zM493.6 266.5c3.5 3.2 6 7.4 9.6 10.6-2.1-4.5-5.3-8-9.6-10.6zm-5.2.1l7.2 6.9c-1.3-3.5-3.4-6-7.2-6.9zM478 216l-.4.3c1.4 2.7 3.4 4.9 6 6.3a23 23 0 00-5.6-6.6zm115.5 71.8c2.1-1.6 3.4-2.8 4.2-5.5-1.9 1.9-3.6 2.8-4.2 5.5zm-4 2.3c1.4-1 2.2-1.7 2.3-3.5-1.2 1-2 2-2.2 3.5zm22.3 11.5l6.3-.2v-.6l-9.5-1.4c.5 1.8 2.5 1 3.2 2.2zm0 .1zm-7.3.3c2.5 1.2 4.8 1.5 7.1-.2-2.3.6-4.7-.7-7.1.2M611.9 301.6l-.2.2h.3l-.1-.2zm24-13.3c1.8 1 3.4 1 5.4-.6-2.2-.3-3.9-.3-5.5.6zm-78.3-134.9c.7-2.6.1-4.9-1.4-8-.6 3.5.5 5.8 1.4 8zm10.5 33.6c1.6-.5 1.9-1.3 1.7-2.5-.7.5-1.6 1-1.7 2.5zm55.4 76.1c-4.5.7-8.8 2-12.7 4.3 3.3 0 8.9-1.9 12.7-4.3zm-4 4.7c2.4-.7 4.8-.9 6.7-2.7-2.4.4-4.9.5-6.6 2.7zm193 155.6l.1-.1h-.1v.1z"
            clip-rule="evenodd" />
        <path fill-rule="evenodd"
            d="M956.7 331c4.2-4.3 9.1-7.8 13.4-13.1-2.5.4-3.4 1.9-4.5 2.8-4.4 3.4-13.6 13.7-34 17.9-.5 0-1 .3-1.6-.5 7.7-4.7 13.2-11.8 19.4-18-9.2 4.3-15.5 19.3-39.8 23.5-2.3.4-4.5 1.5-7.8 1.5a84.5 84.5 0 0020.5-20.3c-2 .3-2.8 1.7-3.8 2.8-16.6 18.7-24.5 18.2-31.8 21.1-2.2.9-4.4 2-7.6 2.3 3.4-3.7 7.1-6.3 9.7-10.7-6.6 2.4-10 13.2-26.8 15.1 0-1.2 1.1-1.2 1.8-1.6 16.3-8.9 22-22.7 44.5-34.4 28-14.5 59.1-3.1 93-6.9h2l.3.7c-15 7.4-30.6 13.3-46.9 17.8zm-84.5 25.4c15.3-6.4 31.7-8.3 47.5-12.6-15.6 5.3-31.3 10-47.5 12.6zm111.2-28.7c2 1.3 2.5.9 10.3-.9-.4 1.2-.7 2-1.9 1.8-22.5 31.7-60.2 49.1-105.8 39.4-8.1-1.7-16-4.3-24.5-5-.3 0-.6-.3-1.3-.7 15.1-5.3 29.2-3.1 43 3.9-6.8-6.4-16.4-6.8-22.5-9 13.5-1.4 21.8-9 46.5 2.5 1.3.6 2.7 1 4.1 1-8-5-16.9-7.8-26.2-9.3l.3-.8c42.8-12.6 26.6 1.1 57-3.7-3.2-1-6.4-.4-9.6-.4-6.1 0-8-.8-21.1-3.4 2.2-1.7 4.6-1.6 6.5-2.5 10-4.9 20.8.6 38.3-4.8 1.6-.5 1.7 0 1.8-1.8a78.7 78.7 0 01-27.8 2.3c18.1-6 35.8-12.6 53.1-20.8-4.5 7.4-11.3 11-20.2 12.2zm-138.1 37.4c3-1.8 6-3.3 9.5-3.9a33 33 0 01-9.5 4zm2.2-17c0 1.5-.3 2.5-1.2 3.4-.5-1.4 0-2.2 1.2-3.5zm5.8-2l7.5-10.2c2.5-3.3 4.3-7.1 7.6-9.8-6.1 10.8-14 20.3-21.9 30 1.4-4 4.4-6.8 6.8-10zm-21.8-69.6c.7-.8.9-.4 2.8 1 .1-2.6-5-4.2-3.3-8.8 1.2.1 1 2 2.2 2 .2-2.8-5.5-2.9-1.6-19.1 7.2-30.6 12.8-41.5 21-65 .4-1 .7-2 2-3.5-.8 9.7.2 18.5-.3 27.6-2.4-.6-1.9-3.4-3.7-4.5a2 2 0 00.1 2.6c3.7 4.2 4 9.4 4 14.6-.1 3 .6 6-.1 9.2-3.5-2.3-4.3-6-6.8-9.8.5 10 7.5 8 7.3 19.3-.3 18.2-.1 17.6-1 19.2-6.7-3.7-9.5-10.3-12.4-17-.8 1.4-.3 2.4 0 3.3 10.3 25.7 14.6 1.9 11.9 35.7a22.3 22.3 0 01-11.1-15.6c-.7 4.8 1 10.5 9.2 16.8.9.6 2 1.2 1.8 2.5-.5 4.7-.2 9.6-1.4 14.4-4.8-2.7-6.4-7.2-11.6-12.6 5 12.6 12.5 12.3 11.1 19.5-.9 5 .7 7.9-1.2 9.9-8.5-13-15.4-26.7-19-41.7zm22 49c-.9-10 .4-19.9 1.7-29.8 1 10-.5 20-1.7 29.9zm-14.8 44.6c-2.2 2-3 5.1-5.8 7.6 1.6-4.8 4-8.3 6-12.3 1.3 2 1.6 3.2-.2 4.7zm-18.5 44.5c-.6 1.8-.6 4-3.1 4.7-.5.2-1 1.4-1.1 2.1-.3 2.4-2 1.8-3.4 1.9l-.1.1c.5 1.6-.4 2.7-1.3 3.8-.5-1.6.1-2.8 1.3-3.8v-.1h.1c3.3-7.8 7.8-15 11-23 .9.7 1.2 0-3.4 14.3zm-4.4 13.2c-.8-1-.3-1.8.4-2.9.6 1.3.3 2-.4 3zm-.9 4c0 .4-.4.5-.5.1-.1-.4 0-1 .1-1.5 0-.3.4-.4.7-.1l-.3 1.5zm-3.6 7c-.5-5.2-.2-5.9-2-5.9-1.2 0-1-2.7.3-3.2.9-.2 1.3.4 1.6 1 1 2.6 1.8 5.3.1 8zm-.8-65c-6.9-2.5-9.6-7.3-17.5-2.8-7.9 4.6-9.2 10.4-13 11.2 1.3-5.4 3.4-10 7.6-13.8.5 1.2-.6 2.3.6 3.6 4.1-9.6 8.6-11.3 15.9-13.5-.6 2.7-3.6 3.6-3.6 6.7 6.8-5.8 4.5-9.5 21-7.3-2.3 2.3-5 3.5-5.7 6.6 5.4-3.8 8-9.2 17.6-1.8-12.5 5.4-14.3 14-23 11zm-32.3 5c-1.8-8.9 6.3-23.3 15.4-29.8a26 26 0 0139.5 9.7c-2.6-.8-5-2-7.6-2.4-4.8-.8-4.8-7-11.2-6.5 1.8 2 4.8 2.2 5.5 5.2-10 0-8.6.5-11.6-1.7a14.2 14.2 0 00-8.1-2.6c-.8 0-1.7 0-2.2 1.1 3.4.8 7.2.5 10.7 3.7-5.6.4-10 3.3-15 3.4-2.6.1-4.8 1-7.1 1.8-.7.3-1.3.6-1 1.6 2.2.9 3.8-1.6 6.8-1.2a38.9 38.9 0 00-14.1 17.8zm89-87.1c-3.2 3.7-5.2 8.2-9.5 11.8.4-25.8-2.7 1 16.3-45.3l-.4-.9c-5.8 8.9-7.6 19.8-15.5 28.7.2-7.7-.9-14.4-.3-21.1.1-1.2.8-2 1.3-3 5.1-9.5 9-19.5 13.5-29.3l-.5-1c-4.7 8.4-9.7 22.4-14.2 28.4 0-39.7 1.6-19.2 6.9-43.5-2.9 4.9-4 10.5-7.2 16a47 47 0 013.4-28.9c-2.6 1.3-2.4 3.3-3.6 4.3-1.2-3.9-1-22 .4-27 1.1-.1 1 .9 1.1 1.4 5.7 22.6 23.8 29.5 18.9 83.1a104.3 104.3 0 01-21 55.3c-.6-4.8.4-9 .7-13.2 0-.9.8-1.4 1.3-2 3.3-3.5 5.7-7.6 8.2-11.7.3-.6.7-1.1.1-2.1zm23.7-38.8c2.1-19.8 13.2-32 34.6-51.9 8.6-8 8.5-9.6 11.3-10.1-5 10-9.5 19.7-14 29.9-1.6-2.9.5-5.2-.4-7.6-3.5 5.7 0 9.5-.7 11.6-.8 2.3-6 16.9-7.8 18-3-6.7-1.1-13.3.4-19.8-.8-.2-1.1 0-1.3.4-2 5.5-3.6 11-1.6 16.8 1.5 4.5.8 8.5-1.6 12.5-1.8 3-2.7 6.4-5 9.8a38.4 38.4 0 01-1.6-24.5c-1.1-.5-1.3.3-1.4.9-2 7.7-2.3 15.4.9 22.9 1.7 3.8.5 4.6-5.3 15.8-1.9-6.6-2.3-12.4-3.1-18.2-1 1.7-1 3.4-.8 5 .4 3.4.6 6.9 1.5 10.1 1.1 4.4.3 8-2.5 11.4-.9 1-1.5 2.3-3 3.3-.4-6 .3-26.5 1.4-36.3zm44.7-16.4a51.1 51.1 0 00-26 29.8c-.6 1.2-.5 2.7-2 3.4-1.1-1.5.5-1.8 7.4-20.6.7-2 2-3.1 3.6-4.2a43 43 0 0013.3-13.6c-4.9 3.6-8.3 9-14.5 12.1 11-31.4 4.7-12.1 17.5-29.4-3.3.3-5.4 5.7-9 6.6 4-10 8.2-19.4 13.4-28.6-1.3 11.4 5.8 39.1-3.7 44.5zm21.4-8c2-1.1 3.6-3 6.4-3.8-2.7 4-6 7-8.8 10.5-9.3 2.3-7.6 10.8-19.8 17.7a35 35 0 016.7-12c-1.7 0-2.3 1-3 1.9-9.3 13.5-5.6 13.6-15.1 19.1-.3-3.5 2.1-5.8 2.7-9.1-5.3 2.8-1.3 9.9-12.2 12.6-1-.8-.1-1.5.2-2 11.7-21.3 21.6-23.7 42.9-35zm-13.6 27.7c-3.3.3-6.5 1.3-9.9 1.7 2.4-2 3.9-4.9 8-5 3.8-.2 7.9-1.6 10.7-5-3.5 1-6.7 2.7-11 3.2 6.4-7 6-2.9 15.3-10-2.5-.2-3.6 1.3-6 1.5l14.7-16.3c-3.5 9.9-11.3 29.2-21.8 30zm-40.8 17.4c.2-2.7.2-2.7 2-4.2-.2 1.6-.5 3.2-2 4.2zm86.1-29c1.2-.8 2.3-2 4.5-1.7a41 41 0 01-13.5 12.5l3.5-4.4c-2.6.4-3.7 1.8-4.9 3a44.6 44.6 0 01-24.3 12.7l9.4-7.1-.5-.8c-6.2 2-8.2 9.4-34.1 14 3.3-3.4 8.1-4.2 11.8-7-.9-1.2-1.8-.4-2.6-.1a56.6 56.6 0 00-13.6 7.4c-3.8 2.8-8.4 3.6-12.7 4.9 1.9-2.6 4.9-3.6 7.5-5.7-3-1-10 4.7-12.4 7-3.2 3-7 5-11.4 7.9 1.5-4 4-6.2 6.2-8.6 23-24.8 57.4-15.1 87.1-34zm-90.2 43.9c2.9-2.8 6.1-3.6 7.6-4.6-1.6.9-4 3-7.6 4.6zm65.7-9.6c-31 19.3-43.1 9.5-64.2 11.6 5.1-4.7 10.8-5 16.7-4.4 5 .4 9.8-.5 14.6-1 .3 0 .6-.5 1.1-1-6.4-1-12.6 1-19-.6 15-11.3 25.3 1.1 44.3-7.8-6.8-.3-8.7 2.9-25.5.9.8-1.5 2-1.4 3-1.6 4.5-1 8.7-2.8 13-3.6 4-.6 17.6 0 24.9-5.3-4.8.6-9.3 2.6-14.5 2.8 2.2-2.3 5.1-2.5 7.5-3.9 4-2.3 12.5-2.9 15.8-5-.7-1.5-2-.1-3.1-.8 2.2-3 6-4 8.5-6.6 2.6-2.6 5-5.3 8.1-7.5-3.5 5.2-14.2 23.2-31.2 33.8zm47 28.9c-30.5 3.6-59-1.7-84.6 2.8-34 6.1-46.7 28.1-54.1 34.3-7.3 6-16 9.6-24.4 14.3.1-1.4.8-2 1.4-2.7 34.9-42.3 35.4-67.3 65.1-63.3 57 7.9 90.1-54.1 87.3-57.3-1.6-1.8-7.2 2-11.2 4.5a88.5 88.5 0 01-37.4 13.7c.1-1 .7-1.6 1.3-2.2 6.4-5.8 11.4-20.5 14.8-26.2 1-1.8 4-6.8 2.5-8.3-1.2-1.3-2.5.1-3.6.8-1.2.7-23.2 13.6-25.8 14-.6-.9 0-1.6.1-2.4 4.3-18.2-1.7-21.3.4-38.7 1.5-12.5.2-12.2-24 12.7-13.9 14.2-29.4 25.4-31.3 52.3-2 28.4 1.7 34-5 43.4-19.7 28.2-26.8 41.2-29.7 42.4a45.9 45.9 0 017.3-20.6c24.7-33.4 32.1-80.4 12.1-116.3-4.5-8-9.1-16.1-11.8-25.2a10 10 0 00-2.1-3.9c-5.4-6-9.3 14.4-14.3 26.7-6.4 15.4-10.8 31.3-15.5 47.1a61.2 61.2 0 002 38.3c8.5 24.3 22.7 28.2 17.9 47.6-2.2 8.9-6.1 17-9.6 25.3-.2.5-.5 1-1.1 1-.8-.5-1-1.3-1.3-2-1.2-5.5-13-25-36-17.6-27.3 8.8-30.7 47.5-20.6 43 7-3 13.6-17.7 23.2-12.1 17.3 10 16.5-3.4 31.1-7.8.3 2.2-.8 3.4-1.5 4.6-6.8 12.9-12 32.8-25.2 55.6-2.8 4.9-1.5 14.6 2.4 18.5 1.7 1.8 4.2 1.5 4.7-.6 3.8-13.7 8.7-27 12.1-40.8 13.9-55 40-33.8 63.2-29.8a133 133 0 0026.6 2c13.6-.5 27-4.6 39.1-10.8 13-6.7 26.5-17.4 35.4-29.2a92 92 0 0122.1-21.8c1.5-1 3.3-2.3 2.5-4.2-.6-1.6-2.8-1.3-4.4-1.1"
            clip-rule="evenodd" />
        <path fill-rule="evenodd"
            d="M910.5 359.3l10.8 3.8c-4-3.5-7-4.5-10.8-3.8zm81.3-30.7zm0 0c-3 .4-6 1.1-8.5 2.7 3-.2 6.3.3 8.5-2.7zM913.7 363c2 1.1 3.9 2.5 6.3 2.3-2-1-3.9-2.5-6.3-2.3zm55.1-15.6c1.6.5 3 .2 4.8-.6-2.1-.3-3.5.1-4.8.6zm-43.3-26c1.6-1.7 3.7-2.8 5.2-4.6-2.3.9-4.4 2-5.2 4.6zm27.2-5.2c-.3.9 1.4 1 2-1.2-1 0-1.7.4-2 1.2zM841.3 226l2.6 6.2c-.3-4.3-.3-4.3-2.6-6.2zm3.7 10l-2.7-4.5c-.3 2.9 1.3 3.6 2.7 4.5zm2 6.9c-.1 2.1 1.2 2.8 2.4 3.6a5.6 5.6 0 00-2.5-3.6zm22.6 16c2.6-2.5 4.4-5.3 5.8-9.2a18.2 18.2 0 00-5.8 9.2zm5.6-15.8c-1.8 2-3.2 4.2-3.5 6.8 1.8-2 3.2-4.2 3.5-6.8zm40.2-24.8c.2-1.3 1-2.8 0-4.7-1 1.8-1.1 3.2 0 4.7zm17.3 6.3c2.5-1 4.5-2.4 5-5.2-1.8 1.7-4.2 2.7-5 5.2zm1.7 3c1.7-1.4 3-2.6 4.3-5.2-3.6 2-3.6 2-4.3 5.2zm131 388.6h-.9c-2.5-28.1-2.6-27.4 11.3-50.8 4-6.9 4.3-14.5 5.5-22l-.8-.2c-4.5 19.9-2 14.6-16.6 38.6.7-19.8.7-20.5.9-22.8.8-13.9 16.6-18.8 13-59.3 0-.2-.2-.4-.7-1 0 3.4-.2 6.4 0 9.3a63 63 0 01-12 41.2c-2.8-31.1-3.5-29.8-.8-44.5a101 101 0 00-1.8-36l-.9.1c2.1 14.8 3.6 29.6-.5 44.3-.8-.3-1-1.3-1.2-2.2-5.5-22-7.7-13.7-8.4-39.4-.2-8.4-3.5-16.1-6-24-.3 7 3.8 12.5 4.5 23.2l.6 12.2c-1.8-.2-.3 0-11.8-19-1.1-2-1.8-3.9-2-6.1-.7-12.2-8-26.4-10.3-27.1 2.7 6.7 8.7 17.2 8.4 26.4-13-15.4-26.8-29.5-38.7-45.3.7-.8 1.6-.2 2.4.2 22.5 11 52.6 22 53.3 31 1.4 0 .5-1 1-1.3.1-.5.4-.5.7-.3 4.4 4.3 9 8.3 12.9 13.2 6.8 8.8 4 12.7 5.8 16.1.8-2 .2-3.8.4-5.8 2 1.5 1.8 3 2.7 12 1.5-2 .6-3.6 1.3-5.5 4.2 5.4 1.5 11.5 2.7 17.8 1.3-3.5 1-6.4 1.1-10 3.7 4.7 16 35.8 17 48.2 4.5 55.7-22.7 69.8-32.1 88.8zm7.3 28.8c.7 1 2 2.3-.2 3.5-31.6-50.7-1.7-84.5-20.5-151.4-2-7-4.8-10.8-3.8-12 2 3.6 3.5 7.4 4.8 11.3 24 69-8.7 106 19.8 148.6zm-17.2-70.6c-.4 3.5.3 7.1-.8 11.5-3-11-10-18.6-16.8-26.3 1.2 3.7 3.3 6.7 5.7 9.7 11.5 14.2 10.8 25.5 12.8 46.7-1.1 0-1.4-.6-1.6-1-13.3-19.5-32.7-43.7-33.8-80.1l9.8 11.2c1.1-1.3 0-1.7-.4-2.2-10.6-12.8-9.8-10-10-16.3 5.6 4.2 8.7 10 13 14.8.9-1-.1-1.5-.5-2-13.6-19.6-12.7-9.4-13-26.2 2.2 1.6 3 3.8 6 4.8-1.7-2.2-2.7-4.3-4.4-5.5-2.5-2-2.3-4.2-2.2-7 1.9.4 2.4 2.7 4.4 2.4-1-3.3-6.3-4.3-4.7-9.2 3.3 1.5 5 5 8.6 7-3.4-7.3-9.5-6.3-9.6-15.3-.3-17.6-6-34-13.9-49.6-8.7-17.2-8.4-19.3-9.9-27.2 1.4.8 31.4 35.2 32.6 37.4-4.4-2.3-8.2-5-12.6-6.4-.6 1.7-.2.2 12.4 8.6 2.7 1.8 5.2 4.1 6.8 7 1.8 3 10.8 18.1 9.3 20.3-5-5-10-9.9-16.9-12.2-.5 1.3.4 1.3 1 1.6 12 7.5 21.5 16.7 24.4 31.3 1.8 9.6 3.3 12.8 3.8 18.4a66.1 66.1 0 00-23.3-23c0 1.7 1.2 2 2 2.6a72 72 0 0115.1 15c9.2 11.1 8.4 23.2 7 38a82.2 82.2 0 00-21.5-30.4l-.7.5c12.6 15.7 24.7 28 22 51.1zM995.7 408c-12.7-6-1.5 23.5 6.8 38.4 21.3 37.9 5 86.3 27 134.4a206.3 206.3 0 0023.7 37.3c10.8 14.4-.6 3.6 15.4 30.9.7 1.2 5.4 7.4 7.8 4 2.1-2.8 2.8-5 1-6.5-4.8-4-8.2-13.1-10.2-18.8-1.4-4.1-.8-8 2-11.2 5.7-6.4 10.8-13.4 16.9-19.5 11.5-11.8 21.7-43 13.5-77.1-21.3-89-71.3-96.3-104-111.9"
            clip-rule="evenodd" />
        <path fill-rule="evenodd"
            d="M1084.2 565.5c3-2.6 4.6-5.7 4.4-8.3-1.6 2.8-3.5 5-4.4 8.3zm-4.4 13.9c2.4-2.5 4.5-5 5.6-8.3l-.5-.5c-2 2.7-4 5.5-5.1 8.8zM1093 541c-.9 2.5-3 4.6-3.2 7.8 2.5-2.5 3.2-4.1 3.2-7.8zM1084.9 570.6l.5.5c1.4-1.2 2-2.8 2.5-4.4-.3 0-.5-.2-.8-.3l-2.2 4.2zm-61.8-90.8l10.6 9.2a18.7 18.7 0 00-10.6-9.2zm14.6 99.1c-2-3-4.2-5.8-5.7-9.2.2 4 2 7.1 5.7 9.2zm-21-122.4a7.3 7.3 0 005.5 3.4c-1.1-1.7-2.8-2.6-5.5-3.4zM314.7 322c2.3.8 2.7.2 9.9-3.2-.1 1.3-.2 2-1.4 2.2v-.1c-15 35.9-48 61.2-94.6 61.8-8.3.1-16.6-.7-25 .6-.3 0-.7-.3-1.4-.5a52.6 52.6 0 0142.7-5.7c-8-4.7-17.4-3-23.8-3.8 12.9-4.3 19.2-13.6 45.9-7.8 1.4.3 2.8.3 4.2 0-9-3-18.2-3.9-27.6-3.2l.1-.9c39-21.7 26.2-4.7 54.8-16.2-3.3-.2-6.4 1-9.5 1.8-6 1.3-8 1-21.3 1.3 1.7-2.1 4.1-2.5 5.8-3.8 8.7-7 20.4-4 36.3-13.2 1.5-.8 1.7-.4 1.4-2.2-8.4 4.6-17.3 7.1-26.6 8.5a447.2 447.2 0 0047.2-32c-2.7 8.2-8.6 13.2-17 16.3zm-126.4 66.9c2.5-2.5 5.1-4.6 8.4-6a33 33 0 01-8.4 6zm3.5-20.4L197 357c1.7-3.8 2.6-8 5.3-11.3-3.7 11.9-9.3 23-14.8 34 .4-4 2.8-7.5 4.3-11.2zm-5.6 6.8c-.8-1.3-.4-2.1.5-3.6.2 1.6.2 2.5-.5 3.6zm-3.5-56.4c3.2 9.6 3.9 19.6 4.8 29.6-3-9.6-4-19.6-4.8-29.6zm.2 23a130.8 130.8 0 01-27.7-36.5c.5-.9.9-.6 3 .3-.4-2.4-5.8-2.9-5-7.7 1.1-.2 1.3 1.6 2.5 1.4-.4-2.7-6-1.6-5.8-18.3.2-31.4 3.4-43.2 6.2-68 0-1.1.2-2.1 1-3.9 1.4 9.7 4.4 18.1 6 27-2.6 0-2.7-2.8-4.7-3.5a2 2 0 00.7 2.5c4.5 3.3 6 8.3 7 13.4.6 2.8 2 5.6 2 9-3.9-1.5-5.5-5-8.8-8 2.8 9.5 9.1 6.1 11.4 17 3.8 17.9 3.8 17.3 3.3 19-7.4-2-11.5-7.9-16-13.9-.3 1.6.4 2.5 1 3.3 15.6 22.8 14.5-1.4 19.3 32.3a22.3 22.3 0 01-14.2-12.8c.4 4.8 3.2 10 12.7 14.3 1 .4 2 .7 2.3 2 .5 4.8 2 9.4 1.7 14.5-5.2-1.7-7.8-5.7-14-9.8 7.6 11.2 14.9 9.3 15.1 16.6.3 5 2.4 7.5 1 9.8zm-21.6-134.4c10.5 20.8 29.6 23.5 36.7 77 4.2 31.6-6.6 56-8.4 58.6-1.5-4.7-1.4-9-2.1-13.1-.1-1 .4-1.6.8-2.3a72 72 0 005.4-13.2c.2-.6.5-1.3-.3-2-2.2 4.3-3.2 9.1-6.6 13.5-5.3-25.2-2.4 1.6 5.9-47.8 0-.2-.3-.4-.5-.7-3.8 9.9-3.1 21-8.9 31.3-1.5-7.5-4-13.8-5-20.5 0-1.1.4-2 .7-3.1 2.9-10.4 4.6-21 6.7-31.6 0-.2-.3-.4-.7-1-2.8 9.3-4.5 24-7.6 31-8.7-38.8-2.6-19.1-2.9-44-1.7 5.4-1.5 11.1-3.5 17.2a47 47 0 01-3-29c-2.2 1.9-1.6 3.8-2.5 5-2-3.5-5.8-21.2-5.6-26.3 1-.4 1.1.5 1.4 1zM256 351.7c-14 8.5-28.3 16.6-43.5 22.7 13.5-9.6 29.1-15 43.5-22.7zm-52.3 22c14-12.2 16.5-27 35.9-43.3 24-20.3 57-16.1 89-27.2l2-.5.6.6c-13 10.5-27 19.8-41.9 27.7 3.1-5.1 7.2-9.6 10.2-15.7-2.4 1-2.9 2.6-3.8 3.7-3.5 4.3-10.2 16.4-29.2 25-.4.1-1 .5-1.6-.2 6.5-6.3 10.2-14.3 15-21.8-8.2 6.2-11 22.2-33.7 31.7-2.2.9-4.1 2.5-7.3 3.2 6.5-7.8 12-15.3 15.5-24.4-2 .8-2.3 2.3-3 3.6-12.2 22-20 23.2-26.4 27.6-2 1.4-4 2.9-7 4 2.6-4.4 5.6-7.8 7.2-12.7-6 3.8-6.9 15.2-22.9 20.7-.2-1.2.9-1.4 1.4-2zM183 395.2c-1.8 2.3-1.8 5.6-4 8.6.5-5 2-9 3.2-13.3 1.6 1.7 2.2 2.8.8 4.7zm-8.3 47.5c-.2 1.9.3 4-2 5.3-.5.2-.7 1.5-.6 2.2.2 2.4-1.5 2.2-2.9 2.6v.1c.8 1.5.2 2.7-.5 4-.8-1.4-.5-2.7.4-4l.1-.1c1.5-8.3 4.3-16.3 5.6-24.8 1.1.4 1.3-.3-.1 14.7zm-1.4 13.9c-1-1-.7-1.8-.2-3 .8 1 .8 1.9.2 3zm-.4 4.3c-.2-.5-.2-1-.3-1.6 0-.3.3-.4.7-.2v1.5c0 .4-.3.5-.4.3zm-1.5 7.3c-1.7-5-1.6-5.7-3.3-5.3-1.2.3-1.6-2.4-.4-3.1.8-.5 1.4 0 1.8.5 1.5 2.4 3 4.8 1.9 7.8zm-15.2-63.3c-7.2-.9-11-5-17.6 1.2-6.7 6.2-6.7 12.2-10.3 13.9.1-5.6 1.2-10.5 4.4-15.2.8 1 0 2.4 1.4 3.3 2-10.2 6-13 12.5-16.6 0 2.7-2.7 4.2-2 7.3 5.3-7.2 2.3-10.3 18.9-11.8-1.8 2.8-4.2 4.6-4.1 7.7 4.4-4.9 5.8-10.7 16.8-5.6-11 8-10.9 16.9-20 15.8zm-30.4 12.2c-3.6-8.4 1.1-24.3 8.5-32.6a26 26 0 0140.6.7c-2.7-.2-5.2-.7-7.8-.6-4.9.3-6.3-5.8-12.4-3.8 2.2 1.6 5.2 1 6.5 3.8-9.8 2.3-8.3 2.4-11.7.9a14.1 14.1 0 00-8.5-.7c-.8.1-1.6.3-2 1.6 3.7 0 7.3-1.2 11.4 1.2-5.4 1.6-9 5.4-14 6.6-2.4.7-4.4 2-6.4 3.4-.6.3-1.1.8-.7 1.8 2.3.3 3.4-2.5 6.4-2.7a38.9 38.9 0 00-9.9 20.4zM208 269.3c-2.3-19.7 5.8-34 22.3-58.2 6.6-9.7 6.2-11.3 8.8-12.4-2.7 10.8-5 21.4-7.1 32.3-2.1-2.5-.6-5.2-2-7.3-2.1 6.3 2.1 9.3 1.8 11.4-.2 2.4-2 17.8-3.6 19.2-4.4-5.8-4-12.6-4-19.2-.7-.1-1 .2-1 .6-1 5.8-1.3 11.5 2 16.7 2.5 4 2.7 8.2 1.2 12.5-1.1 3.3-1.2 7-2.8 10.7a38.4 38.4 0 01-6.8-23.5c-1.3-.2-1.2.6-1.2 1.2-.3 8 1 15.5 5.9 22 2.5 3.5 1.4 4.5-1.7 16.7-3.3-6-5-11.6-7-17-.7 1.8-.2 3.4.3 5 1.1 3.2 2 6.6 3.6 9.6 2.2 4 2.1 7.7.1 11.6-.6 1.2-.8 2.6-2.1 3.9-1.7-5.9-5.6-26-6.7-35.8zm33.8-70c1.2 11.3 14.3 36.9 6.2 44.2-10 9-15.5 16-18.8 34.8-.3 1.3 0 2.8-1.2 3.7-1.4-1.2.1-1.9 2.7-21.7.3-2 1.2-3.4 2.6-4.8a43.1 43.1 0 0010-16.3c-4 4.6-6.2 10.6-11.5 15 3.9-33 1.9-12.8 10.6-32.5-3.2 1-4 6.7-7.3 8.4 1.6-10.6 3.7-20.7 6.7-30.8zm25.3 31.6c1.7-1.5 2.8-3.7 5.4-5-1.7 4.5-4.3 8.2-6.3 12.1-8.5 4.4-5 12.3-15.3 21.7a35 35 0 013.9-13.2c-1.7.4-2.1 1.4-2.5 2.5-6.1 15.2-2.6 14.6-10.6 22-1-3.4.8-6.1.6-9.5-4.5 3.9 1 9.9-9.1 15-1.1-.6-.4-1.4-.2-2 6.7-23.4 15.8-28 34-43.6zM260 261c-3.2 1-6 2.7-9.3 3.8 2-2.5 2.7-5.6 6.7-6.6 3.7-1 7.3-3.3 9.3-7.2-3.2 1.7-5.9 4-10 5.6 4.7-8.3 5.1-4.2 12.7-13.3-2.5.4-3.2 2.2-5.6 2.9l10.8-19.2c-1.2 10.4-4.5 31-14.6 34zm-35 21.4c.2 1.6.2 3.2-1 4.6-.4-2.8-.4-2.8 1-4.6zm76.6-42.7c1-1 1.8-2.5 4-2.6a41 41 0 01-10.4 15.2l2.4-5.2c-2.4 1-3.2 2.6-4 4a44.6 44.6 0 01-21 17.8l7.6-9a56 56 0 00-.7-.7c-5.5 3.3-5.9 11-30.1 21.2 2.5-4 7-5.9 10-9.4-1.2-1-1.9 0-2.6.4-4.3 3-8.3 6.3-11.7 10.3-3 3.6-7.3 5.3-11.3 7.5 1.3-2.9 4-4.5 6-7.2-3.1-.4-8.6 6.8-10.4 9.5-2.5 3.7-5.8 6.5-9.4 10.3.5-4.3 2.6-7 4.2-9.7 16.9-29.3 52.6-27.4 77.4-52.4zm-78.3 62.7c2.2-3.3 5.2-4.9 6.3-6.2-1.2 1.2-3.2 3.8-6.3 6.2zm62-23.9c-26 25.7-40 18.8-60 25.5 3.8-5.7 9.4-7.2 15.2-8 4.9-.7 9.4-2.6 14-4.2.4-.1.5-.6 1-1.2-6.5.4-12.2 3.8-18.8 3.6 12.2-14.3 24.9-4.5 41.5-17.4-6.7 1.3-7.8 4.8-24.6 6.5.4-1.6 1.6-1.8 2.5-2.2 4.1-1.9 7.9-4.6 12-6.3 3.7-1.5 17-4 23-10.6-4.5 1.6-8.5 4.5-13.6 5.8 1.7-2.7 4.5-3.6 6.5-5.4 3.4-3.1 11.6-5.6 14.4-8.3-1.1-1.4-2 .3-3.3-.2 1.5-3.5 5-5.3 6.9-8.3 2-3.1 3.7-6.3 6.3-9.2-2.4 6-8.9 25.9-23 40zm52.3 17.8c-29.1 10.4-58 11.4-82 21.5-31.8 13.4-39.4 37.7-45.2 45.3-5.8 7.5-13.6 12.9-20.7 19.3-.2-1.3.4-2 .8-2.9 24.7-48.9 19.7-73.5 49.5-76 57.4-5 76-72.7 72.5-75.2-2-1.4-6.5 3.5-9.9 6.9a88.5 88.5 0 01-33.4 21.5c-.2-1 .3-1.7.8-2.3 5-7.2 6.6-22.6 8.6-29 .6-1.9 2.3-7.4.6-8.5-1.5-1-2.4.6-3.3 1.5-1 1-19.7 18.5-22.1 19.4-.7-.8-.4-1.6-.4-2.4.1-18.7-6.4-20.4-8.2-37.8-1.2-12.6-2.5-12-20.6 17.6-10.4 17-23 31.3-19 58 4.4 28.1 9.1 32.8 4.8 43.4-13 31.8-17.2 46-19.7 48-.5-7.7-.4-15 2.5-21.8 16.8-38 13.7-85.5-13.7-116-6.2-7-12.6-13.8-17.1-22a10 10 0 00-3-3.4c-6.5-4.7-5.8 16-8 29.2-2.8 16.4-3.7 32.9-4.7 49.4a61.2 61.2 0 0010.4 36.8c13.6 22 28.3 22.5 27.9 42.6-.2 9-2.2 17.9-3.8 26.8 0 .5-.2 1-.9 1.1-.8-.3-1.3-1-1.6-1.7a28.2 28.2 0 00-39.1-9.1C115 391 120.2 429.5 129 423c6.2-4.6 9.4-20.3 20-17 19.1 6 15.4-7 28.7-14.5.7 2.1-.1 3.5-.5 4.9-3.8 14-4.5 34.6-12.3 59.7-1.7 5.4 1.7 14.6 6.4 17.6 2 1.3 4.3.5 4.4-1.6.7-14.2 2.5-28.3 2.9-42.5 1.4-56.6 31.5-41.7 55-43 8.8-.4 17.8-1.7 26.3-4a92.8 92.8 0 0035.9-19.1c11.2-9.4 22-22.8 28-36.2a91.8 91.8 0 0116.8-26.2c1.3-1.3 2.7-3 1.5-4.6-1-1.4-3-.7-4.5-.2z"
            clip-rule="evenodd" />
        <path fill-rule="evenodd"
            d="M169.1 453l.1-.2h-.1v.1zm81.5-84.2l11.4 1.3c-4.6-2.5-7.8-2.8-11.4-1.3zm72.5-47.8a20 20 0 00-7.7 4.5c3-1 6.3-1.1 7.7-4.5zm0-.1zm-68.6 50.8c2.2.6 4.3 1.5 6.7.8-2.2-.7-4.4-1.7-6.7-.8zm55-29.1c-2.3.1-3.5.9-4.6 1.7 1.6.1 2.8-.5 4.5-1.7zm-52.7-14.2c1.3-2 3-3.6 4.1-5.6-2 1.3-3.8 3-4 5.6zm25.5-11c-.1.9 1.6.5 1.7-1.7-1.2.2-1.6.8-1.7 1.7zM153.7 254l3.9 5.5c-1.3-4.2-1.3-4.2-4-5.5zm5.8 9l-3.6-3.8c.4 2.8 2 3.2 3.6 3.7zm3.4 6.3c.5 2 2 2.4 3.2 3a5.6 5.6 0 00-3.2-3zm29.3.4c-2 2.1-3.7 7.5-3.6 10.2 2-3 3.1-6.2 3.6-10.2zm-3.5 1c1.3-2.4 2.2-4.8 1.8-7.5a12.2 12.2 0 00-1.8 7.5zm34.5-45c-.5 2-.3 3.3 1 4.5 0-1.4.5-3-1-4.5zm23 .6c-1.3 2-3.4 3.6-3.6 6.2 2.2-1.5 3.8-3.3 3.6-6.2zm-1.3 8.7c1.4-1.7 2.4-3.2 3-6-3 2.7-3 2.7-3 6zM75.2 518.6c7.6-4 15.8-6.7 23.7-10.2 3.8-1.7 7.7-1.2 11.2 1.4a47.4 47.4 0 0114.9 15.4c.9 2.2 3.2 2.1 6.6 1 3.8-1.3-.6-7.6-1.6-8.7-21.3-23.4-14.4-9.3-24.9-24-8.6-12-17.4-23.8-28.5-33.7C53 438.5 25 430.4 0 420.5v5c2.4 2.8 2.3 6.6 6.5 10.4-1-4-3.7-6.7-4.1-10.3 5.1 0 4.5 5.2 7.3 7.2.9-1.8-1-3-1-5 2.7.9 5 1.4 6 4.3.7 2 2.4 3.5 4 5.7 0-3-2-4.5-2.8-7 16 5.2 6.5 1.4 21 20.2.5.5.7 1.6 2 1-3.4-5.5-8-10.2-10.4-16.7 6 2 3.6.5 12.7 14.4.3.5.3 1.7 1.9 1L35.3 438c34.5 12 51.7 37.6 66.4 56.2.3.3.8.7.5 1.8-19.7-8.2-30.6-11-40.8-26.2-2-3.1-4.4-6-7.5-8.3 5.3 8.8 10.4 17.8 20 24-4.5-.4-7.7-2-11.2-2.7-22.8-4.3-31-19.5-42.1-36.2l-.8.5a82 82 0 0022.7 29.7c-14.6-3.2-26.4-6.1-34.3-18.2-3-4.6-6-9.4-8.2-14.5v4.1c2.9 6.4 7 12 11.5 18-4-1.7-6.5-3.5-11.5-6.4v2.6c53 29.9 91.7 16 128.4 58.7-1.8 1.7-2.6.2-3.4-.8-30-37.4-71.6-22-125-55.7v2.9l.8.5c.8.4 1.7 1 1.7 1.8l-2.5-.1v1.5c8.8 1.4 11.9 3.2 35.8 13.2-3.3 1.9-19 5.5-35.8 1.3v1.2c25.3 6.6 33.8-2.7 45.2 0l22.1 6c-27.2 6.8-21.5 6-41.8 4.3v1c7.4 1 14.8 3 22.5 1.2 26.5-6.3 25.9-6.4 51.8 4.4l-.1.8c-21 3.4-42.5 25.1-94.4 4.3L0 506.2v3.8c29.4 16.6 60.9 16 75.2 8.6"
            clip-rule="evenodd" />
        <path fill-rule="evenodd"
            d="M45.7 507.5c-3.4-.2-6 1-9.2 1.7 2.4 1 5.8.4 9.2-1.7zm4.9 2.8c3.5-.1 6.6-1.3 9.6-3-3.4 0-6.6 1.2-9.8 2.3l.2.7zm-31-1.8c3.6 1.2 5.3 1 8.5-.7-3.1-.8-5.7.6-8.4.7"
            clip-rule="evenodd" />
        <path fill-rule="evenodd"
            d="M45.6 510.5l.1.9c1.7 0 3.4-.1 4.9-1.1l-.2-.7-4.8 1zM65.3 459c2.8 2.4 4.7 5.5 7 8.1-.9-4-3.3-6.7-7-8zM353 2.5c9.9 13 21.7 24.6 29.9 39a293.7 293.7 0 01-29.8-39zM399 64.8a33 33 0 01-5.2-8.9c2.5 2.6 4 5.7 5.2 9zm2.1 8c-.5-2.3.6-3 2.7-4-.8 4.6-1 8.8-2.7 13.5-.7-3.7.7-6.6 0-9.5zm3.4-53c1 4.1 0 8.3 0 12.4 0 4.3 0 8.5-.2 12.7-.1 4 .6 8-.7 12-.3-12.4-.8-24.8 1-37.1zm3.2 30.2c.2 1.6.1 2.6-1.1 3.4-.2-1.2.2-2.1 1.1-3.4zm25.9-46.2c-5 8.7-10.1 17.3-17 24.8 5.2-8.7 10-17.5 17-24.8zm-10.9 78.5c1.4-2.8 0-5.4-.4-8.6 14.4 8.3 10.3 9.8 12 18.6 2-2.5.2-5 1.3-7.5 4.5 6.1 7 10.3 4.4 20.3 1.7-.2 1.5-1.8 2.7-2.4.9 5.6-.2 10.5-2.4 15.6-2.6-3 0-8.4-3.5-16.8-3.5-8.5-8.6-6.3-15.5-8.6-8.7-2.8-4.8-10.8-11.4-22.7 12 0 10.9 5.8 12.8 12.1zm27 1.3c3.3 10.7.8 27.1-6 33.1a38.8 38.8 0 00-.3-22.6c2.6 1.5 2.4 4.4 4.7 5.1.7-.7.5-1.3.1-1.9a20.7 20.7 0 00-4.5-5.7c-4-3.3-5.6-8.2-9.8-12 4.7-.4 7.5 2.2 10.7 3.7.3-1.3-.4-1.8-1-2.2-2.4-1.7-5-3-8-3-3.7 0-2.3.5-10.2-5.7 2.3-2 4.8-.2 7.5-.7-4.7-4.4-8.6.6-12.9-1.7-2.3-1.3-4.8-1.8-7.4-2.8a26 26 0 0137.1 16.4zM389.2 131h.1v.1c.2 1.5 0 2.9-1.4 3.8 0-1.4 0-2.9 1.3-3.8v-.1c-1-1-2.7-1.6-1.5-3.6.4-.6.7-1.9.4-2.3-1.6-2.1-.2-3.8.4-5.6 5-14.2 5-13.5 6-13.4-2.3 8.3-3.2 16.7-5.3 24.9zm-3.2 9.6c-1.5-1-1.7-.4-5.2 3.4.3-3.2 2.6-4.8 5-6.3.6-.4 1.3-.6 1.8.2.8 1.2-.7 3.5-1.6 2.7zm-3.8-4.3l.6-1.4c.5 0 .7.2.6.5-.3.5-.5 1-.9 1.3-.2.2-.5 0-.3-.4zm3.1-6.3c0 1.3-.1 2.2-1.4 2.6 0-1.2.2-2 1.4-2.6zM336.5 29c6.8 5.6 14.5 10.6 22.2 14.7 20.9 11 54.4 10.2 31.8 62.1-5.6 13-10 26.6-15.3 39.8-.9 2 .9 3.7 3.3 3.3 5.5-.7 12.5-7.6 13.2-13.2 3.5-26 11.6-45 14-59.4.3-1.4.2-3 1.7-4.6 8.8 12.5 0 22.6 19.9 25.2 11 1.5 7.3 17.2 10.9 23.9 5.2 9.6 26.3-23.1 10-46.7A28.2 28.2 0 00409 66c-.7.5-1.4.9-2.3.8-.5-.4-.4-1-.3-1.5 2.4-8.7 4.2-17.5 7.9-25.8 8-18.4 21.6-12.7 43.2-26.9a73.2 73.2 0 0015-12.6H467c-2 1.2-4.8.7-5.8 2.1 2.3.1 2.8 0 2.8 1-12 9.8-25.7 16.3-40.4 21.5-.3-2.8 2.6-4 5-8.6 3.3-6.5 9-1.7 20.7-8.6-7.4 1-11.4 3.6-16.8 2.9 1.6-3.9 4-7 6.3-10.3h-5.6l-6.5 8.4c-.6-3-.6-5.7-.4-8.4h-1.5c-.3 3.1-.4 6.2-.2 9.4 0 .8.3 1.6-.2 2.4-2.3 3.5-4 7.4-7.4 11-.3-1.7-.3-10.6 2.7-22.8H416c-1.3 7-2.1 14-2.3 21-.1 7.3-3.2 14-6.8 20.7-1.4-2.4.3-14.4 1.8-41.7h-5.5c-.7 13.3-3.3 30.9-2.5 55.4 0 1 .2 1.9-.5 3-3.7-8.8-8.5-17-10.6-26.2-1.3-5.9-.5-17.8-5.3-32.2h-3.6c5.8 17.6 4 30.1 10.4 44.6.3.7 1.1 1.3.4 2.3-12.2-11.7-8.2-22.4-12-28.4-.6 5.2.7 9.5 1.1 14.5-2.2-2.3-3.4-4.4-4.6-6.5-3.4-5.8-8.7-9.8-11.2-26.5h-1.7c.7 4.7 1.8 9.5 3.2 14.4-2.6-2-3.7-4.2-5.3-6a57.7 57.7 0 01-6.5-8.4h-7.8c3.4 3.5 7.7 8.7 13.4 16.6l-.3.8c-8.2-4.5-17-7.6-26.4-8.7 1.2.9 2.5 1.5 3.9 1.8 26.6 6 28.5 17 38.3 26.4-6.2-2-14-7.5-23.2-6.6a52.6 52.6 0 0136.4 23.2c-.9-.1-1.3 0-1.6-.2-7-4.7-15-7.4-22.4-11A105.2 105.2 0 01318 0h-4.2a91.1 91.1 0 0022.7 29z"
            clip-rule="evenodd" />
        <path fill-rule="evenodd"
            d="M389.2 131h.1v-.1h-.1v.1zM340 16.7l10.8 3.7c-2.6-2.9-5.6-4-10.8-3.7zm6.1 4.6c-1.8-1.7-4.1-1.7-6.4-2 1.8 1.5 4.1 1.7 6.4 2zM232.2 36.5a66.9 66.9 0 01-3.2-11.8c1.5.3 1.7 5 4.5 11.8 26.7 64 71.2 72 77.9 131.4-2.5.4-2.3-1.3-2.4-2.6-4-51-52.7-59.7-76.8-128.8zm-22 47.4c14.8 31.8 42.2 50 58.6 52 8.5 1 16.8 3.4 25.3 4.9 4.1.7 7 3.4 8.5 7.5 2 5.7 5 15 3.6 21.1-.4 2.3 1.5 3.5 5 4.5 3.9 1 3.8-6.6 3.6-8-4.5-31.4-6.7-15.9-7.2-33.9-.4-14.8-1-29.5-4.5-44-9-36.6-33.4-61.3-49.1-88h-4.5c2.1 3.8 4.5 7.4 7.1 10.9 5.5 7.1.1 10.1 2 18 1.5-4 .7-7.6 2.4-11 4.3 3 .8 7 2 10.2 1.7-1 .8-3 2-4.6 1.7 2.2 3.3 3.8 2.5 6.9-.5 2 0 4.2 0 7 1.7-2.6 1-4.9 1.8-7.5 10.2 13.4 4.5 4.8 6 28.6 0 .6-.5 1.7 1 1.9.3-6.4-.9-13 .9-19.7 3.7 5 2.6 2.5 2.3 19 0 .7-.7 1.7 1 2l.7-14.9c21.8 29.3 21.6 60.2 23.3 83.8 0 .5.2 1-.6 1.8-11.7-17.8-19.2-26.3-19-44.6 0-3.8-.2-7.5-1.5-11-.6 10.2-1.4 20.4 3.1 31-3.6-2.8-5.3-6-7.8-8.5-16.5-16.5-14.7-33.6-14.5-53.7h-1a82 82 0 002.1 37.3C255 72.1 246.9 63 247.2 48.6a72 72 0 012.6-21c.3-1 1-2-.1-3.4a66 66 0 00-4 32.5c-3-4.7-3.9-8-8.4-16.8-6.8-13.2-5-26.4-.2-39.7V0h-1.3c-3.1 5.7-4 12-4.8 18.5-2-.7-3.9-12.3-4.8-18.5h-3.5l.5 2.2c2.9 22 3.8 21 2.6 22.3l-7.1-10C214.8 8.9 213.3 4 211.6 0h-1.4a59 59 0 007.8 16c15.4 20.6 8.6 15.5 17.8 36.2.4.8.9 1.7.4 2.4-12.3-9-20.3-21.5-27.8-34.4l-.8.4c5.4 10 11.4 21 21 29.4 11.2 10 9.8 9.3 26.9 35.4a63 63 0 01-35-24.8c-1.6-2.5-3.6-4.7-5.7-7.4v1.3c22.4 34 37.8 28 47 38.4l15 17.3c-26.4-9.7-21.2-7.1-37-20l-.6.7c5.6 5.1 10.5 11 18 13.8 25.4 9.8 25 9.3 40.3 32.8l-.6.6c-19.1-9-49.3-3.2-80.3-49.6-7-10.4-16.5-42.4-16.6-48.5 2.3 3 4 5.3 7.1 7.3-3-5.7-8.8-8.9-9-15.7 1.8 1 2 2.9 4.5 3.6-5-7.7-6-8.8-5.3-11.1 1.4 1.4 2 3.2 3.9 4.3-.7-3.9-5.3-5.2-5.4-16.3 0-4.1.4-8.1 1-12.1h-3c-3 21.8.1 48.6 16.5 83.9z"
            clip-rule="evenodd" />
        <path fill-rule="evenodd"
            d="M250.7 110c-2.8-2-5.6-2.5-8.6-3.7 1.4 2.2 4.6 3.6 8.6 3.8zm2.5 5.2c2.9 1.8 6.2 2.6 9.6 3-2.9-2-6.2-2.9-9.5-3.7l-.1.7zM236 100.4c-2.2-2.4-5.1-2.6-7.4-4.1 2.3 3 3.8 3.7 7.4 4.1M248.6 113.3c1.3 1 2.7 1.8 4.6 1.9l.1-.7-4.4-2-.3.8zm-5.8-94.6c1-4.6 1.7-9.2 2.6-13.8a18.6 18.6 0 00-2.6 13.8zm52.7 73c1.5-3.9 1-7.5-1.3-10.7 1 3.6.9 7.2 1.3 10.7zm691.4-15l11.8-16.6c3.8-5.6 6.7-11.8 11-17.6 1.1 3.4-17 30.2-22.4 34.7-1.6 3.4-5 5.3-7.2 8.2-11 15.2-24.5 21.3-30.6 25.4a502 502 0 01-38.4 23.4c-.7-1.6-.5-2.8 1.2-3.3a176.4 176.4 0 0039.1-24.4C969 97.6 980.1 82 987 76.8zm-20.5-21.6c-3.1 10.2-5.2 20.6-8 30.8-2 7.7-5 15.6-11.8 20.5-10.2 7.2-18 14.7-34.3 20.4-2.6.8-6 2.3-4.8 8.9.5 2.9 1.6 3.5 4.2 2 60-36.5 29-23.1 68.7-27.3 44.2-4.7 72.4-23 82.3-81.5a182 182 0 017-28.9h-3c0 .3 0 .7-.2 1.2-10.3 28.4-2 47.2-30.6 81.6-21.9 26.2-75.7 27-76.6 24.4 4.7-3.6 9.9-6.4 13.9-10.8 4.2-4.5 15.7 3 28.5-7.6-4.1 1-7.7 3.4-11.9 4-3.2.4-10.7 0-12.4-.8 1.6-1.7 3.2-3.4 4.6-5.3 11.6-15.7 26.3-7.9 44.8-24.5-8.2 3.2-12.2 8.5-35 13.7 8.3-11.8 8.9-12.7 10.3-14 5.3-5.2 17-9.1 24-14.8 4.7-3.8 9.6-7.3 15.2-9.6.5-.2 1.2-.5 1-1.3-4 0-11.8 5.4-15 8-6.4 5.4-14 8.8-22.2 12.8 3.3-6 6-11.2 9-16.4 6.6-12.2 19.3-9.7 37.5-28.3.6-.7 1.6-1.3 1.3-2.9-16.3 14-12 11.2-32.1 21.4-.4-3 8.4-13.7 12.3-19 5.5-7.7 10.7-6.5 18.1-11.8h-3.2a18 18 0 01-5.2 2l1.8-2h-6.5c-1.3 5.2-3.3 5.4-10.4 14.1-1.3 1.5-2.2 3.4-4.2 5 .2-6.7 1-13 2.3-19.1h-1.7a119 119 0 00-2.6 19.9c0 1.5-.1 2.9-1 4.2-11.8 16-11 15.8-12.4 15.8 1-13.7-3.3-16.8 1.8-39.9h-.8c-2 3-2.4 6.6-3 10.1a70 70 0 00.1 22.4c1.5 11.5-2.5 16.3-14.7 34.7l-.9-.2c1.7-8-2.8-25.2 1.6-44 .2-1 1.1-2.1.2-3.5-6 5.9-3.5 39.8-3.6 44-.1 9.9-3.9 12.2-10.9 19.2-.5.6-1 1.4-2.1.8-.3-6-2-11.9-3.8-18.7-2.6 7.4 7.5 19-3.2 27.1-3.9 3-7.4 6.5-11.4 9.3-.6.4-1 1.3-2.3.4 5.3-9.1 7.6-22.7 13-42 2.1-7.2 1.6-5 11.2-17.3-3.5 1.2-4.3 4.2-7.2 6.1 1-2.6.6-5 3.6-5.5 1.3-.2 3-3.3 3.5-5l-4 3.4c4.2-13.9 14.7-30 25.7-41.3h-3.4c-16 16-25 34.7-31.1 55.1"
            clip-rule="evenodd" />
        <path fill-rule="evenodd"
            d="M1044 63.4a68 68 0 01-14 18.4c-.5.4-1 .6-1.2 2.2a73.7 73.7 0 0022.7-33.6c-2.7.5-2 1.8-7.5 13zm-16.2 15c-4 3-8 6.4-11.8 9.6 5-1.9 8.8-5.2 11.8-9.6zm23.8-49.7c2.8 0 4.6-2 6.7-3.1-2.9-.4-4.6 1.7-6.7 3.1zm4.6-10.4a9.6 9.6 0 005.6-3.9c-2.4.5-4.2 2-5.6 4zm-3.3 13.8c2.3-.1 3.8-1.6 5.9-3.4-3 .2-4.5 1.7-6 3.4zm-71.4-.5c-1.6.5-1 2-.2 1.4.4-.3 1-.5.8-1.2l-.6-.2zM689.2 0h-20.8a39.2 39.2 0 0020.8 0zm102 86.4h-.2l-.1.2.2-.1.1-.1zM765.6 2v-.2.1"
            clip-rule="evenodd" />
        <path fill-rule="evenodd"
            d="M717 4c1.7-1.3 3.2-2.6 4.6-4h-6.9a70.4 70.4 0 01-9.3 5.6c-2 1-3.6 1.6-3.7-.5 0-1 0-2 .2-2.8l.6-2.3H701c-.8 2.4-1.3 4.7-.5 7.2-10.4 5-29.9.6-37.6-7.2H659a41.4 41.4 0 0027.2 12.6c11.2.5 21.7-1.8 30.9-8.7"
            clip-rule="evenodd" />
        <path fill-rule="evenodd"
            d="M734.4 90.1c-20.4-11-35.2-16.5-60.8-27.8 1.8-.8 2.6 0 3.4.3 26.2 10.5 90.7 32.5 89.4 60-1.4-1.1-1.7-2.5-2-3.7-3-9.4-19.7-23.2-30-28.8zm35.1 53.2c.5-5.5.2-11 .6-16.9 1 3-.3 6 1.5 8.8 1.4-2.1.2-4.1 1-6.2 2.6 4.3.2 2.5-1.4 35.3-.2 4.5-.6 9-1 14.4-1.6-2.7.6-5.4-2-7.3-.6 12.5-.2 13.3-1.2 14.2-3 2.6-1.8 19.8-2.3 28.5 0 .8-.4 1.8.7 2.7 1.5-8.5 1-16.9 1.5-25.2.3 2 .2 4 .3 6.1 0 11.2 1.3 4 .7 15.4 0 .7-1.3 20.4-1.9 20.7-1.9.8-1.3 2.4-1.4 3.8-.5 8.9-.4 17.7-1.3 26.6-.9 9.2 2.1 5.6-.4 14.7-2.2-.7-2.2-2.1-2.1-3.7 1.8-21.3 1.9-20.5.2-22.4l-1.5 22.4c-2-.1-.5-2.7-2.3-2.5-3.5.5.1 3.9 5-63 1.9-25.9 4-27.9 7.3-66.4zm-2.3-35.3c4.2 5.2 5.8 7.4 1 11.8-.3-4.1-2.1-7.7-1-11.8zm.4-78c.8 35.3 3.8 33.7 2.5 75.6-2-8.6-4-71-2.5-75.6zm11.9 100c1.5-3.2.6-6.6 2.2-9.5 6.3 7.8-.5 17.3 3.4 18 1-2-.5-4.5 1.4-6.8 1.7 3.3 3.2 6.2 3.9 9.4.3 1.2.6 3.1 1.7 3 3.5-.3 4.6 3.2 7.3 4.3-6.3 1.8-13.6-4.3-18.4-8.9-9-8.6-2-16.4-7.4-27.3 10.4 3.6 3.2 10 5.9 17.7zm20.7-24.9c5.2 2.5 1.3 6.7 4.5 9.8 1.3-2.2-.8-4.3.2-6.7 3.4 2 6 4.7 8.5 7.3.6.7.7 1.5.8 2.3 3.4 16.2 3 15.5 4.4 15 0-4.4-1.8-8.7-2.2-13.7 3.7 3.8 6.4 7.5 9.8 10.7 5 4.6 1.9 14.3 13 19.5-7.4-8.6-7.9-9.4-7.5-13.4 11.8 9.9 13.3 10.6 16 14 1.7 2.2 4.1 4 7.4 4.7-.4-2.2-3-1.8-3.6-4.2 4.8 2.3 9.1 4.6 13.7 6.2-1.6 4.3-28.8 10.2-45.6-11.8-8-10.6-12.5-25.7-23.4-35.4-9.2-8.2-17.2-5.3-21.4-5.1 8-4.7 17-3.1 25.4.8zm-19-10.4c2.5-3.6 5.9-6.2 9.7-8.1l.1-.2h.2c1.6-2 3.2-4 6-4.3-2 1.2-3.3 3.8-6 4.3l-.3.2c-2 3-5.3 5-7.7 7.7-.5.5-1.2.6-2 .4-.1 1.3-.7 2.1-2.3 2.4.6-1.4 1.2-2.1 2.3-2.4zm71.4 44c3 5.6 7.8 9.8 12.3 15.3-12.5-4.2-28.4-15-31.9-21.2 3 1.3 7.4 3.6 10.3 2.3a42.6 42.6 0 01-26-19.4c8.2 3.4 4.6 1.7 11.7 5.7 1.6.9 3 2.3 5 2.2a46 46 0 00-17-9.5c-4-1-5.8-4.3-9.1-7 4-.5 6.6 2 10.5 1.8-4.6-3.6-13.2-3.7-23.8-8.2-3.6-1.6-7.6-1.2-11.6-1.4 2.7-3.3 44.4-6.3 69.6 39.4zm-54.1 5.2c-5 0-9-12.3-10.2-15.2-.3-.7-.7-1.5-.3-2.3.5-1 1.7 1 2.3-.7-2.6-1.3-5.5-2.5-5.4-6 .9-.5 1.7 1 2.8-.4-4-2.1-7.2-5.2-10.4-8.9 17.1 3 11.5 19.5 21.2 33.5zm46.7-105.2c1.6-2.3 3.8-3.9 6.3-5-2 1.8-3.5 4-6 5.3-3.4 4.5-7.9 7.9-12 11.6a46 46 0 0111.7-12zm28-25.2l.6.7L854 31.9l-.7-.8c6.1-6.5 13-12.1 20-17.6zm-258.4 68a125.9 125.9 0 0046.2 21c44 11.6 82-12.5 99.3 14 7 10.9 4.6 19 3.1 43.3-.1 2-3.7 40.6-5.7 54.6-4.4 30-4.1 42.6-5.7 55.4-.6 4.4.8 5.4 9.3 15.5.9 1 4.3 4.2 5.2-.4a99.6 99.6 0 001.3-18.8c0-9.3 1.3-13.1 2-38.5 1-36.8 4.2-50.7 5.1-81 0-2.4.5-4.8.8-7.7 7.2 7 12.8 14.2 26.7 12.5 3.3-.5 5.2-1.2 2.8-3.5-13-12.2-6.1-27.3-18.5-38.4l-.2-1c18.4 7.6 14 15.7 29.2 36 22.2 29.8 59.1 19.3 51.8 8.6-2.4-3.4-7-6.6-15.3-22.1a64.7 64.7 0 00-66-35.6c15.9-17.4 49.2 6.2 101.6-25.3 26-15.6 32.3-35.5 42-66.2l1.3-3.9H928a6196 6196 0 00-4.8 13.2c-.5 1.2-1.3 2-2.4 2.6-2.3 1.4-4.4 3-6.6 4.5 2.7.2 4.2-2.2 7.2-2.8l-.6 2.3c-13.1 34.7-26.4 45.7-63 59-28 10.2-45 4.1-62.7 8.3 7-5.5 13.4-14 30.3-14.7 6-.2 11.7-1.5 17.4-3.7-5 .3-9.9 1.5-14.8 1.8-5 .2-10 .8-16 2.2 23.2-19.4 15.1-14.3 41.3-19.1 4.7-.9 9.2-2 13.3-4.7-11 3.3-22.3 4.4-33.4 6.2 11.5-12 14.3-17.3 28-18.8 5.9-.6 23.2-4.1 26.5-8.7a124 124 0 01-35.1 8.5c18.8-17 19.4-19 28-20.4C897.8 13 913.6 3.7 916 0h-.5a92 92 0 01-38.1 14.4c-.2-1-1.5.1 16.5-14.4H887c-3.1 2.4-6.6 5.3-9.7 7l2.7-7h-1.7c-2 5-4 9.3-5.7 11.2-4.5 4.8-10.2 8.4-15.6 13.9 1.4-5.5 5-8.7 6-13.2a68.2 68.2 0 00-8.6 13.8c-1.8 3.6.7.8-18 18.2C842.9 19 849.8 9.3 857.8 0h-1.9c-20.5 23.8-17.6 42.9-26.9 51.7-.8.7-11.2 11.3-16.8 15 3.8-10.8 6.8-21 11.4-31.5-2.4 1.3-2.8 3-3.4 4.4-7.6 16.8-6.5 25.3-14 32-5.2 4.6-10.9 8.6-16.4 12.9.4-2 1.2-3.7 2-5.3 4.4-8.3 6.6-17.3 9.6-26.1 8-23.6 17.2-40.4 28-53.1h-4.7c-34 43.2-20.5 70.1-50.7 97.4-1.2-.7-.7-1.8-.7-2.7 0-20.4-3.3-71.8-4.9-94.7h-2.7v2.1c.5.3.7.7.7 1.2.4 7.6 1.4 15 .5 22.6-.1-11.2-2-18.7-1.2-23.8v-.3c-.4-.5-.6-1.1-.6-1.8h-4l.3 2.5c3.6 31 3.8 95.4 3.5 100.2-11-13.3-6-12.1-28.4-38.8C703.2 24.3 656.6 21.7 620 0h-5.3c60.5 41.9 96.2 16.8 143.9 99 .6 1 1.6 2 1 3.7-2.9-2-4.7-4.8-7.5-6.6-18-11.5-13.6-18.4-28.1-30.4-.6-.5-1.2-1.5-2.8-.5 6.8 6 12.4 12.7 16.5 21.3-28.9-14-19.1-9.2-42.4-37a15.8 15.8 0 00-8.2-5.3c10.7 8 16.5 19.8 25.7 30-38.5-10.8-29.4-24.4-48-38.4-.6-.5-1.3-1.5-2.6-.5 11 9 7.3 7.6 22 27.3-1-.1-1.4 0-1.8-.2-24-10-22.4-9.2-25.8-12a61.3 61.3 0 01-16-22.6c-.5-1.2-.6-2.7-2.4-4 1.6 9.2 7 15.9 12 23.3-1-.3-1.5-.3-1.8-.5-22-13.3-24.4-18-27.5-29-.3-1.4 0-3-1.7-4.4-1 4.9 2 8.7 2.6 13.2-3-1.6-3.5-3-13.6-13-5.3-5.2-2.6-8.7-6.3-12-1.2 1.5.9 2.9-.2 4.5L597.2 0h-3.4c2.6 3.5 5.7 7.8 9.8 13-7-3.6-13.2-8-19-13h-1.5c8.3 12.3 15.3 9.3 43 34.8.2.2 0 .5-.5.8-13.4-3.3-27.4-15.3-32.6-17.1A87.3 87.3 0 00621.7 36c12.6 4.3 21 12 31.3 17.6 1 .5 2.3.6 2.8 2-15.5-3.5-30.7-5-51.3-14.2-.5-.2-1-.3-1.5.2 1.6 2.7 23.3 10 34.5 12 6 1 12 1.7 17.6 4 30.7 12.2 27 11 31.6 13.4-14-1-27.8-.2-41.6-1.6 23.6 7.4 30.5-3.8 65.8 11.7 2 .9 4.4 1.4 6.4 3.5-12.8-.5-25 .3-37.6 1.1 2.3 1.5 4.4 1.3 6.4 1.1 4.5-.4 27.9-.8 31.5-.2 11.9 2 24.7 9.7 29.7 16-1 .4-1.8 0-2.6-.1-25.7-6.1-41.3 7-86.6-5.2a138 138 0 01-48.8-25c-7.1-6.4-13-14-18.4-22-.2-.2 0-.5.6-.7 9 4.4 18 9.6 28 12-1-1.7-29.3-11.3-33-18.3-4.2-8.4-4.5-8-3.7-9 2.4.9 4.2 3.2 7.4 3.4-3.6-3.4-8.6-4.4-10.2-9.2 3 1.7 5.5 4.1 9.1 4.4-3.5-3.4-11-5.5-13-15.3-.5-2.2-2.2-10.6-3-17.7H570c.7 27.2 16 59.3 44.8 81.5"
            clip-rule="evenodd" />
        <path fill-rule="evenodd"
            d="M684.3 6.4c5.4-.6 6-4.5 7.1-6.4h-1.8c-1.4 3.2-3 5-5.3 6.4zm-59 72.6c4.5 4 22 6.8 27.6 4.4-9.3.6-18.2-1.7-27.6-4.4zm34.3 9.4c-7.6 0-15.3-.9-22.9-1.7 7.4 2.8 15.1 2.6 22.9 1.7zm48.2 9.4H725c-5.7-1.9-11.5-.3-17.2 0zm-78.3-22.3l.3-1-12.4-2.9c3.7 2.6 8 3 12.1 3.9zm-8.6-6.8l.4-.8-12.2-5c3.6 3 7.7 4.5 11.8 5.8zm91.2 25.7l-7.4.4c2.4 1.6 2.4 1.6 7.4-.4zm-56.4-1.8c1.8 1.5 3.7.6 5.7.5-1.8-1-3.7-.8-5.7-.5zM575.6 3.9c1 2 2.1 3.6 4.4 4.2a7.8 7.8 0 00-4.4-4.2zm307 55.4A63.7 63.7 0 01860 72c-.4.1-.7.5-.8 1 10-2 18.3-7.2 25.4-14.5-.9-.3-1.5.1-2.1.7zm2.1-.8zm3.5-9.8c-4.4 3.5-8.2 7.6-12.6 11.1a32 32 0 0012.6-11zm-40 13.5l.2 1c5.3-.8 10.4-2.3 15.4-4l-.2-.7-15.3 3.7zm7.7-3.6c-5.3.1-10 2.3-15 3.6 5.3.1 10-2.2 15-3.6zm52.6-40.4h-.1l.2.1h-.1zm-5.7 1.7l-7.8 2.2c4 .6 10-1.2 13.4-3.8-2.1-.3-3.7 1.2-5.6 1.6zm12.9-6c-2.3 1.6-5.2 2-7 4.3 2.9-.5 5.5-1.5 7.5-3.7l-.5-.6"
            clip-rule="evenodd" />
        <path fill-rule="evenodd"
            d="M908.6 18.3v-.1h-.1v.1zm-12.1 27.1c.7-1.3 2.4-1.9 3-3.6-2 1.4-2 1.4-3 3.6zm-11.7 13.2v-.2l-.1.1zm0-.2c1.8-.7 2.6-2.4 3.8-3.7-1.6.9-3.6 1.4-3.8 3.7zm6.4-38c1.8.3 3.1-.2 4.3-1.1l-.2-.4c-1.4.1-2.7.2-4.1 1.6zm12.4-4.3c-1.7 0-3 .3-4 1.3 1.4.3 2.6 0 4-1.3zm-4 1.4h-.1"
            clip-rule="evenodd" />
        <path fill-rule="evenodd"
            d="M895.3 19l.2.3c1.5-.3 3.1-.2 4-1.8-1.7-.2-3 .4-4.2 1.4M899.5 17.4v.1zm16.7-3a5 5 0 003.1-2.6c-1.8.3-2.7 1.2-3.6 2.1l.5.6zm-99.6 9.2C822.1 16 827 9 833.4 3.1c-5.2 2-15.1 14-16.8 20.5zm14-13.3c3-1.5 4.3-4.6 6.5-6.8-3.3 1.2-4.4 4.5-6.5 6.8zm-3.3 4c1.7 0 1.9-1.2 2.7-2.7-1.9.7-2.3 1.6-2.7 2.6zM14.8 298.8c11.3.9 34.2-1.1 36.4-3.4-.3-.6-.9-.6-1.4-.5-20.6 3.8-35 2-49.8 1.7v1.6c5-.3 9.9.3 14.8.6zM0 311.8v.7h3.7l-3.7-.7"
            clip-rule="evenodd" />
        <path fill-rule="evenodd"
            d="M93.3 262.5c2-7.9 3-15.8 3.5-23.9 1.5-20.6-8.6-10.2-18.2-4.3-6 3.6-11.8 7.5-18 10.5-19.1 9.2-39.7 11.6-60.6 14v5c16.8-1.9 35.6-5.2 58.9-15.3 10-4.4 18.8-10.5 28-16.1.7-.4 1.3-1 2.5-.9A119.7 119.7 0 0161 261c-.7-1.9 1.6-2.7.9-4.4-4.5 2.3-2.7 6.4-9 10.1-12.3 7.4-13 8.5-16.3 9.4 1.6-4.3 5.4-7.2 5.7-12.2-2 1-2 2.6-2.8 3.8-5.5 10-9 14-33.6 21.7H4.1c6.7-6 13.5-11.1 17.3-19.7-2.1.9-2.5 2.2-3.3 3.3A64.3 64.3 0 010 289.5v5.6c11.2-3 21.2-8.4 34.3-9.6 11.5-1 22-5 32-10.2-5.3.5-21.8 8.8-35.6 8.8-.5-.4-.5-.7-.2-1 35.3-19.4 39.6-12.6 52.4-25.9-8 4.4-16.3 8-25.4 10.2 32.4-26 23.1-21.8 35.8-36.1 1.6 6.4.7 8.7-5.2 13.6 2.3 1 3.2-1.7 5.6-1.5l-5 4.5c2.3.8 2.7-1.7 4.2-1.8 1.6 4-3 4-4 6.3 1.3 1 2-.7 3.1-.4 2 3.5-7.3 23.1-9 26.6-4.3 9-12 9.3-16.3 11.7 3.6.6 6.6-1.2 9.9-2.1-2.6 4.3-7.8 4-12 6.5 3.1.6 5.4-1.2 8-1.5.5 1 .3.7-5.9 7.8-5.1 6-34.9 8.6-36.4 9.8 10.4.2 20.4-2.7 30.2-4.9.5.4.6.7.3 1a113.2 113.2 0 01-23 16.8A122.1 122.1 0 010 335v4.5a107 107 0 0030.2-8c33.4-14.9 56-42.5 63-69zM0 167.2v1.3l2.2-.7c-.8-.8-1.5-.7-2.2-.6zm21.2 33.9c-3-2.5-6.9-3-10-4.7-6.3-3.6-9-5.4-11.2-6.7v2.6c6.1 3.8 12.5 7 19.4 9 .5.2 1 .4 1.8-.2z"
            clip-rule="evenodd" />
        <path fill-rule="evenodd"
            d="M148.2 158.9c-7.2 4.4-31.6 14-36.2 14.2.5-1.4 2.6-1.4 3.2-3.6-5.6 2.4-9.6 7-15.8 7.6-5.6.5-11 3.2-17 2.1 2.3-5.2 9.5-8 11.4-10.6a22.8 22.8 0 00-12.5 8.7c-2 2.8-3 4-29 4.3-1.1 0-2.2 0-3.6-.9a20 20 0 0111.9-6.6c21.3-3.4 33.6-6.4 33.7-6.4 17.3-6 34.8-11 53.9-8.8zm-133 19.7l-.1-.9c5.8-2.8 11.1-6.6 18.6-5 5.4 1.3 11 1.5 16.6 1.5 1 0 2-.1 3 .6-2.4 2-5.1 3.6-7.3 5.9-2.1 2.2-25.3-1.4-30.7-2.1zm7.3 3.3c1-.5 1.9-.3 2.6.5-1 .4-1.8.2-2.6-.5zm8.8-19c-2.5-3.2-6.3-4.5-9.5-6.6.6-1.6 2-.3 5.3-.5 19-.6 19.6 7.4 31.2 8.5-3.8-2.8-8.7-3.8-12.4-6.9 9.3.9 18.8.5 27.6 4.8.4-1.8-1.5-1.3-1.4-2.9 12.3.9 24.6.6 36.9.5-24.4 6.7-48.2 16.6-82 7.6-2-.5-18.6-5.2-27-8.4v3.3c3.4.7 6.7 1.7 10 3 4.6 2 9.4 3.7 15 5.9-17.8 7-8.4 8.4-25 6v2c7.2.9 13.2 1.7 17.2 1.8.9 0 2 0 2.7.8-.4.8 0 .9-17.2-1.2l-2.7-.3v2.3a60.3 60.3 0 0118.3 5.8c19 10.8 23.5 11.3 32.7 12.7-6-3-12.6-4.6-18.6-7.5-6-3-11.6-6.7-17.7-9.6l18.3 1c15.2-1.9 15 7.8 51 10.4.4 0 .8 0 1.1-1-12.2-2-24.8-2.7-36.3-8.8 4.5-1.7 8.7-.2 24.1-2.3 5.5-.7 19.7 4.6 29.2 2.6-6.1-1.5-12.6-.9-19.4-3.5 24.3-4.8 16.6-4.6 21.4-3.6 3.6.7 7.2 1.6 11.5.6-2.8-1-5.3-.5-7.9-2 6.5-2.9 13.3-4.4 19.6-7 6.4-2.6 12.3-6.3 19.7-8-2.9 3.7-6.5 5.7-9.3 8.6-23.4 25-56.4 49-90.3 46.5-13.1-1-26-3-38.2-8.6L0 205v4.7c29.2 13.3 64 16.4 90.7 2.5 3.2-1.6 21.1-13.1 32-22.8 30.8-27.4 35.1-26.6 33.8-31-.6-2.2-3.4-1.7-8.3-2.4-18-2.4-23.9 2.9-65.9 0-33.3-2.2-59.2-4.4-82.3-2.4v2.4c20-2.9 20.8 3.3 31.3 7zM0 .1V0v.2zM5.3 239a17.2 17.2 0 01-5.3 3.2v2.7a60 60 0 007.8-4c1.6-1 3.7-2 3.1-4.3-.5-2.3-2.9-1.6-4.5-1.7-2.4 0-4.5-.4-6.4-.9v5.3c1.8 0 3.6-.2 5.3-.3zM20.5 20.5c-.4 1-1.1 1.9-2.5 2.5.5-1.5 2.5-4 2.5-2.5zm24-4.6c1-1 2.3-1.7 4.7-1.3-2 .9-3 1.7-4.6 1.6-6.5 3.6-13.5 6.2-20.6 9.3 1.8-3.1 13.4-8.5 20.5-9.6zm43.1-2.3c1 0 2-.4 3.1.8-8 3.2-16.1 4.9-24.8 6.3.9-1.6 2.4-1.5 3.2-2.8-4.8.2-10.7 4.8-19.4 4.6 3.5-2.8 7.3-3.8 9.9-6.7-1.6-1-2.5.2-3.4.8-9.2 6-24.3 10.2-25.5 9 1.2-.9 22.1-10.2 31.8-13.9 9.9-3.7 12.6 2.8 25.1 2zm6.1-4.3c-3.6 2-10.7 1.6-15.8-.7 5.6-.3 10.5 0 15.8.7zM64.1 30.7C53.4 32.3 43 30 32.5 28.1c8.3-4.3 22.3 2.7 25.7-.2l-10.8-2c12.3-4 12 2 28-.3-4-1.9-8.7 0-13.5-2.3 13-3.3 13.6-1.2 17.4-1.7.7-.1 3.8 1.5 2.1-1.9-.2-.5 1-.6 1.6-.8l9-2.8C88.5 21.5 73.5 29.4 64 30.7zM0 48.1c20.5-24.5 30.5-15.5 56-14.2 11.3.5 22-1.4 31-9 19.3-16 18.5-15.8 15.7-16.8-4.9-1.8-11.3-1.4-15.4-1.8-7-.6-14.1-.7-21.1 1.3-12.4 3.4-21 2.4-35 9.7-.5.3-1.2 1.2-2 .2C32.6 12.7 52 7.1 69.1 0h-9.7a254.8 254.8 0 00-30.7 14.5c-.8-1 0-1.5.4-2.1C32.7 6.7 36.8 2.8 41 0h-8.9c-3.7 4.5-3.8 4.8-4.8 4.7.6-1.6 1.2-3.2 2-4.7h-2.8c-.8 3.4-2.2 6.4-4 10.9.6-3.4 1-7.1 1.2-10.9H20c-.3 16.1-3.6 18.8-20 40.6v7.5zm112.7 8.3A200.3 200.3 0 0147.1 59c43.2-8.8 65-4.4 65.6-2.5zm14.7 17.8l-.4-.9a31 31 0 0115.3-7l-15 7.9zm-35 18.3c-10.1 3.6-20.3 7-31.1 8.3a102 102 0 01-43.7-7c-4.5-2-9.3-3.2-14.2-4-1-.3-2.1-.3-3-1.3 11-4.5 20.6-.3 30 4.6-3.7-3.2-7.6-6-13-7C22.2 84 28 85.4 34 84.7c6.9-.7 9.6 9.4 26 9-3-1.4-12.7-2.7-19-8.6 4.2-1.3 8.2-.5 12-1.1 19.7-3.1 19.7 8 35.4 4.6-6-.9-12.4-1.1-18.3-5.3 28.5-4.4 24.9-4.1 35.5-4 .8 0 1.6.3 2.2-.6-.2-1.4-2-.4-2.5-1.7 7.2-2.8 14.5-5.7 22-8 .2.8-.2 1-.5 1.1-16 11.3-16.8 16.2-34.4 22.4zm-30 17.3c2.2-1.4 5.1-1 7.4-2.7-.8-1-1.7-.4-2.4-.2-11.2 2.8-14-1-15.4 2.3-1 2-30.6-5-39.9-12.1 15.6-.5 41.7 24 98.5-10.1a74.9 74.9 0 01-48.3 22.8zM23.8 65.4c30.1-8.1 47.8 2.1 84.2-4.7 14.4-2.7 20.5-.4 32.8 2-11.7 3.2-23.1 7.6-35 11l7.7-6.9c-6.7 1.6-12.5 12.4-36 12l18.2-12c-3.2-.9-12.5 7.2-23.5 11.7-.8.3-1.5 1-2.3 1-7 .1-13.8.2-20.8 0 9.4-3.8 18-9 27-13.6-.7-1.3-1.4-.7-2.1-.4-17.4 8.7-29.7 17-53 15.4 7.2-3.5 14.3-7.1 21.3-12-2.2-.2-3.5.8-4.9 1.7-12.7 8.1-32 14-34.7 12.4 4-2.2 8.5-3.7 11.7-7.2C7.2 78.8 3 80.6 0 82v13.4c15.9 5.8 34.3 20.1 65.4 17 35.3-3.6 49.5-27.5 64-35.4 10.8-6 27-15.2 17.6-16.7-34-5.6-49.4-21.9-134.2 6-4.3 1.4-8.6 3-12.8 5v3.4c8-4 16.2-7.2 23.9-9.3zm-3.3 261c-7.1.2-14 .3-20.6-.7v1c7.2 1.5 16.9 1.6 20.6-.3zm-13 4.7l-7.6-1v1c2.5.3 5 .3 7.7 0zm9.8-9.2c4.2.2 8.4.7 12.6-.8l-12.6-.2v1zm10-4.5c4.3-.3 8.6-.8 12.8-2.8l-13 1.9.1.9zm54.1-49.1c2.4 0 3.9-1.4 5.3-3a7.8 7.8 0 00-5.3 3z"
            clip-rule="evenodd" />
        <path fill-rule="evenodd"
            d="M97.5 197.9a102 102 0 01-33.3 11.6c2.5 2.6 33.8-6.8 33.3-11.6zm-49 15.3a42.1 42.1 0 0026.1-1.3c-8.6 1.7-17.4 1.7-26.1 1.3zm3.4-141.1c2.3-1 4-2 5.3-4.4-2.2 1.4-4.1 2-5.3 4.4zm-4.4 1.2c1.5-.6 2.4-1.1 3-2.8-1.5.7-2.4 1.4-3 2.8zM66.4 90v-.1h-.1z"
            clip-rule="evenodd" />
        <path fill-rule="evenodd"
            d="M66.3 89.9l6.1 1.2.2-.6-8.9-3.6c.1 1.9 2.2 1.6 2.6 3zm-.2 0c-2.4 0-4.4-1.7-7-1.5 2.2 1.8 4.4 2.7 7 1.5zm.2 0H66h.2zm26.4-7.3c1.5 1.5 3.2 1.7 5.5.8-2-.9-3.7-1.3-5.5-.8zM73.4 56.4c3.2.7 9 .2 13.3-1.2-4.5-.4-9-.1-13.3 1.2zm8.4 2.4c2.4 0 4.8.3 7-1-2.3-.2-4.7-.7-7 1zm1216.2 422l.8 1c5.7 2.3 10.7 4 15.2 5.1v-1.2c-2.4-.6-4.8-1.3-7-2.2-2.8-1-5.7-1.8-9-2.8"
            clip-rule="evenodd" />
        <path fill-rule="evenodd"
            d="M1278.3 478.1c3.6 1.1 6.3 2.1 10 2-5.6-3-12.3-2.3-16.2-8 2 0 3.2 1.3 5.7.5-8.5-3.5-9.9-3.8-10.7-6.2 2 .4 3.5 1.5 5.7 1.4-2.7-2.8-7.3-1.3-13.7-10.4-3.5-5-6-10.8-8.7-16.2-.2-.4 0-.6.4-.6.4-.4 1.1.8 1.7-.5-8.5-3.5-10-35.4-13.8-60.2-.1-.8-.4-1.9.5-2.4 11.5 16.1 21 33.5 31.8 50.5-8.9-2.4-17.1-11.3-22.8-16 0 2.6 11.4 13.7 22.8 18 2.1.9 3.7 2.1 5.2 3.8 14.8 16.6 15 15.2 14.7 17l-11.5-4.3c-10-3.8-14.1-9.4-20.8-11.3 6.8 4.8 13.1 10.2 21.2 13 23.9 8.2 16 8 34.2 19.3v-2.9c-3.8-2.4-7.4-4.9-11-7.5-3.3-2.5-6.5-5-9.3-8 1.4-.6 4.1 3.2 10.3 7.2a183 183 0 0010 6v-2.5l-4.9-2.8c-13-7-19-19-22.5-32.6-.2-.6 0-1.5-1.3-1.4.2 7.3 3.4 13.5 6.6 19.8-2.5.7-14.3-12.4-16.7-15a21.3 21.3 0 01-4.5-8.6c-4.3-14.5-2.8-14.4-4.5-14.4 0 4.7 1.4 9.1 2.3 14a789.5 789.5 0 01-26-42.3c7.2 3.8 9.2 4.1 23 17.6a114 114 0 0043.3 28c2.6 1 4.1 2 5.2 3.3v-5c-16.5-6.5-31.8-13.9-43.6-26.5-11.7-12.4-36.5-31.8-34.6-18 5.1 35.8-2.9 85.7 75.7 132.7l2.5 1.4v-3.8a185.5 185.5 0 01-35.7-28M1216.7 218.1h.1v-.2.2"
            clip-rule="evenodd" />
        <path fill-rule="evenodd"
            d="M1243 196.7c4.8 2.4 10.7 2 13.6 8.8 1.5 3.3 3.7 6.3 5 10.6 1.6-3.8-1.3-5.2-3.2-11 8.5 5.3 10.5 13.6 10.2 23 1.4-1.4 1.2-2.5 1.3-9.6 6.7 4.4 8.7 7.8 8.6 15 0 1-.2 2-.4 2.8-.6 2.1-2.1 1.1-3.8-.3-13.8-12.1-12.5-16.8-18-27.3-5.3-9.6-10.5-10-16.3-11.4v-.5c1 0 2.3-.5 3 0zm43.8 14.7c6.3 9 15 23 26.5 25.5-5.7 1.2-11 0-16.3-2.1-2.6-1.2 1.3-1.7-.7-2.5-4-1.7-4.5 1.6-18.1-10 4.5.4 8 2.1 11.6 1.1-18.2-5.8-14.6-2.6-22.6-13.8 4.6-.8 8.2 1.6 12 2.1.5-1.1-.2-1.2-.9-1.4-2.3-.7-4.6-2-7-2-5.4-.4-9-3.4-13-7.2 4.2-.6 7.8 1.8 11.6 1-8-3.5-17-3.2-25-7.3 3.7-2.4 28.7-2.2 41.9 16.6zm-55.2-17.8c.8-3 3.4-4.2 5.8-5.6-1.3 2.4-3.8 3.7-5.8 5.6zm-7.3 5c2-6.3 5.4-12 8.8-17.5-2.5 6-4 12.5-8.8 17.4zm-6.4-30.7c-2.3-2.3-6.3-13-9.2-19.6-3.4-7.9 8.8-25.8 5.2-51.1 0-.5-.1-1-1.3-1.6 2.7 16-2.6 30.6-6.2 45.5-2.7-5.6-6.6-10.6-4.4-17.7 3-10 7-29.7 2.1-38.8 2.2 13.8-.8 27-4.6 40.2-3.2-8.5-7-16.7-6.9-26.1.4-20.2 4.6-14.5-2.5-40.6-.3 0-.5.2-.8.3.6 6.9 3.6 13.4 3.2 20.5-.4 6.7-1.7 13.4-1.8 20.3-14.2-23.6-4.9-23.3-8.4-33.6-1.3 4.2-.7 7.9-1.3 12-3-3.8-4.3-9-8.2-17.6-2.7-6 4.2-15.1-2.6-28-.3 4.1 1.8 7.3 1.4 10.9-.4 3.3 0 6.8-.9 10.2A287.3 287.3 0 011149.3 8c1.4-.2 1.9 1 2.6 1.7 6.8 6.4 14.4 11.7 21.7 17.5 6.6 5.1 12.4 11.1 18.5 16.8 4.7 4.3 4.3 12 6.3 16 .6-3.5-.7-6.8-1.2-10.9 8.6 6.7 22.5 28.9 26.7 55.5 3.1 20-4.3 58.5-6 63.3zm-3.6.6a236.6 236.6 0 01-14-33.6c1.1 1.5 2.2 2.9 2 4.9 3 3.7 7.3 17.2 12.3 27.2.2.4.1.8.2 1.2 1.5 2.5 3.4 4.8 3.4 8-2-2.2-3.4-4.7-4-7.7zm-4.3-.2c-8.4-5.4-17.3-10-25-16.5-11.8-10.3-17.8-1.5-36-62.1-1.8-5.9-3.3-11.8-4.5-17.9-1.5-8.1-1.1-52.8 1.3-62.9 3.8 7 6 14.5 10 21.2 4.1 6.7 7.9 13.5 10.4 21.3-5-1.2-7.7-4.6-10-8.5-.7 4.3 4.3 7.9 8.1 10 3 1.5 4.9 3.7 6 6.9 6.5 19.8 9.2 19.5 7.6 21.6-15-10.4-16-9.7-22.2-22.3 4 20.7 22.7 17.6 28.5 34 4.5 13 6.5 15.3 6.2 18.4-3-.6-5-2.9-7.5-4.1-14.8-7-18.7-12.3-22.2-18.4l-.5.2c1.7 9.4 14.3 16.2 23.5 20.7 6.5 3 10.6 7.8 11.1 15.3.2 2.3 1 4.5 1.8 7.4-29.4-13.8-15.4-8.4-26.4-15.3 8.1 14.6 26 10.9 29.7 24.7 1.3 4.9 4.5 9 6 14.5-7-4-13.7-7.3-19.5-12.2.5 2.2 2.1 3.4 3.7 4.7 8.5 7 18 7.3 21 19.2-.4.4-.8.3-1.1 0zm-64.8-77.7c4.6 14.1 10.8 27.6 15.2 41.7-9.9-12.1-13.3-26.7-15.2-41.7zm71.6 127.5c-.6 5.2-4.1 12-7 23 1-7.6 3.7-14.7 6-21.9.1-.5.4-.9 1-1v-.2c.3-1.4.5-2.8 1.5-4.8-.2 2.2-.3 3.6-1.5 4.7v.2zm-29.1 99.6c8.6-41 11.2-38.8 20.5-73 .3 4.9-16.6 65-20.5 73zm100.6-19.6c.9-.2 1.9-.7 3.4.5-27.6 4.9-43.2 6.6-65.6 12.5-11.4 3-31 12.4-36 20.8-.7 1-1.3 2.3-2.9 3.1 5.3-27 73.2-33 101.1-37zm-98.5 22.6c.2 4.2-2.4 7.3-3.8 11.2-3.5-5.5-1.4-7.2 3.8-11.2zm-28.4-5.6c-13 6.8-20.9 20.4-31.2 28.7-21.6 17.5-46.5 5.2-47.1.7 4.9-.5 9.6-1.7 14.8-2.8-1 2.2-3.6 1.2-4.5 3.2 3.3.2 6.2-1 8.4-2.8 3.4-2.6 5-3 18.8-9.7-.6 4-1.2 4.6-10.6 11.2 12.2-2.4 11.5-12.5 17.4-15.9 4-2.2 7.6-5.2 12.1-8-1.6 4.8-4.4 8.5-5.5 12.8 1.2.8.7 1.4 7.9-13.6.3-.7.6-1.5 1.4-2 3-2 6.2-3.8 10-5 .3 2.5-2.2 4-1.5 6.5 3.8-2.3 1-7.3 6.8-8.4 9-1.8 18.2-1.3 24.8 5.2-4-1.1-11.1-5.9-22-.1zm7.5 32.9c-5.6 3.3-14.2 7.4-20 4.2 3-.4 4.8-3.6 8.2-2.4 1 .3 1.8-1.5 2.4-2.6 1.5-3 3.6-5.3 6-8.1 1.3 2.6-.8 4.7-.3 6.8 4 .3-.3-10.5 7.6-16.6 1 3.2-.8 6.3 0 9.7 4.4-6.9-1-14.8 9.9-15.8-7.9 9.3-3 18.5-13.8 24.8zm10.3 6.4c-6 38.2-4.3 40.6-8.7 66.1-11.3 66.2-6.9 63.8-10.2 62.5-1.6-.7-.8 2.2-2.9 1.8l4-22c-2.1 1.4-1.8.6-5.2 21.7-.2 1.6-.6 3-2.9 3.1-.3-9.4 1.8-5.2 3.1-14.4 1.3-8.8 3.5-17.4 5-26 .3-1.4 1.3-2.8-.4-4.1-.5-.4 3-19.9 3.2-20.5 2-11.3 1.6-4 4.3-14.8.5-2 1-4 1.8-6-1.5 8.3-4 16.4-4.6 25 1.3-.7 1.2-1.8 1.3-2.6 1.6-8.5 6.9-24.9 4.6-28.1-.8-1.2-.2-1.8 2.3-14.1-3 1.2-1.6 4.4-3.8 6.6 1-5.3 1.6-9.8 2.5-14.2 6.3-32.2 3.5-31 7-34.6.3 2.1-1.3 3.8-.4 6.2 2.4-2.3 1.8-5.6 3.5-8.2-1 5.8-2.6 11.2-3.5 16.6zm.3-33.8c-4 2.8-7.8 5-12.2 6.2.7 1.6 1.9.3 2.7 1-.8 3.4-3.9 3.9-6.8 4.5.3 1.8 1.9.2 2.1 1.2.2.9-.3 1.6-.8 2.2-1.9 2.5-8.8 13.5-13.6 12.3 12.8-11.3 11.2-28.5 28.6-27.4zm-79.8 9.5c35.3-38.4 75-25.6 77-21.6-4-.8-7.8-2.1-11.7-1.5-11.3 1.8-19.7-.1-25 2.3 3.7 1 6.8-.7 10.6.7-3.9 2-6.3 4.7-10.5 4.7a46 46 0 00-18.8 5.1c2 .6 3.6-.4 5.4-1 7.8-2.1 4-1.3 12.6-2.6a42.6 42.6 0 01-29.8 12.6c2.6 2 7.3.7 10.5.2-4.8 5.3-22.8 11.9-36 13 5.8-4.3 11.4-7.2 15.7-11.9zm72.1-36v-.2c-2.6-1-3.1-3.9-4.9-5.6 2.7 1 3.8 3.3 4.8 5.6h.2v.3c3.4 2.8 6 6 7.5 10.1 1 .6 1.5 1.5 1.8 3-1.5-.7-2-1.7-1.8-3-.7 0-1.4-.2-1.7-.8-1.8-3.2-4.4-5.8-5.7-9.3l-.2-.2zm-63-23.4c-32.3-21.6-42.6-35.5-47-72.4V196c2.7 1.4 3.6 4 6.3 4.5l-5.3-6c-1-.8-1.6-1.8-1.7-3-3-26.8-2.8-23.3-2.5-24.5 1.2-.9 1.6 1.4 2.7.8v-1c-.2-.3-.5-.6-.8-.7-3.2-1.6-3-4.7-3.4-7.6-3-24.7-7.6-27.5-8.7-43.3 3.6-1.3 24.6 42.6 33.5 55.7-2.7-1.4-12.9-10.9-14.7-12.8-2.2-2.3-4.2-4.8-6.5-7 4.7 10 22.5 22.2 25.9 26.7 20.2 26.6 19 24.7 18.5 25.8a92.5 92.5 0 01-34.2-23.8c.4 3.4 14 17.1 31 24.3 7.9 3.3 8 5.4 22.3 26.5-12-4.4-22.5-9.6-32.2-16.7 2.2 5.2 18.2 12.8 23.7 14.8 13 4.7 14.4 10.5 22.7 24.9-10.4-4.4-21-8.2-31-14 3.4 3.6 7.5 5.8 11.8 7.7 24.3 11 17.7 4.1 35.5 28.5-5.3-2.8-10-4.5-14.9-6-4.7-1.4-9.1-3.8-14-5.2 5 3.4 10.3 6.1 16.1 7.7 16.3 4.6 20.5 14.5 26 21.5-16.3-8.3-34.2-6.4-59-23zm15.8-45.3l-.9.6-15-21.9.8-.6a182 182 0 0115.1 21.9zm14.7 23.7c-3.2-4.6-6.8-9-9-14.1-2-1.9-3.1-4.4-4.5-6.7 2.2 1.8 3.9 3.8 5 6.4 2 2.3 8.4 11.3 8.5 14.4zm-86.4-136.8c46.6 33.2 25.6 16.1 36.2 34.9 0-3.4-1.5-6.5-2.3-10.2 2.8.9 4.7 2.6 6.6 3.9 42.8 28.4 70.4 48.9 76.5 118.3.8 9.2.8 18.5 3 27.6.5 1.8.9 3.6.7 5.6-4.3-5.4-8.8-10.7-12.7-16.4-5.8-8.3-2.6-16.3-6-34.4-.3-1.5-.3-3.3-2.3-5.1 2 11.2 2.4 22 3.6 33.3-4.7-4.9-12.2-17.6-12.8-18.6-7.4-11.5 1.4-30.9-16.8-62.1-.3-.6-.6-1.3-2.2-1.3 7.2 13.6 13.3 23.5 13.6 54-14-21.2-12.2-18-13-21.8a68.1 68.1 0 00-5-15.5c-.1 4.6 2.5 8.6 2.5 14.2-3.8-6.6-8.5-11.4-11.7-17.2-3.9-7-3.7-36.7-11.2-42.3 5 11.6 5.8 24.1 7.6 37-4.4-3.8-9-11.4-12.2-14a22 22 0 01-7.6-15.4c-.8-6.5-4.4-18.1-9.6-22 .5 2.8 9 15.3 7.9 25-6.5-6-19.2-30.8-22.2-36.5-9.3-17.6-8.6-13.8-13.7-21.8 1.4-.6 2.2.2 3 .8zm202 23.8c-1 3.5-2.8 6.5-4.4 9.6-4.3 8.3-2-1.5 4.4-9.6zm30.7-41c-4.3 2.8-7.7 6.6-11.3 10.2.4-3.7 6-8.9 11.3-10.2zM1284 38c2.4 13.3 2 26.6-.2 39.9-2-13.2-1.3-10.3.2-39.9zm16 159.6c-20.2-13.6-29.5-14.3-34.1-16a68 68 0 0147.9 10.6h.1v-2.5c-3.7-2.2-5.3-2.9-19.6-8.8 5-.1 12.3.4 19.6 1.7v-2.3c-45.8-5.1-56.3.8-63.2.6 16-7.6 43.7-4.2 63.2-1.7v-2l-17.3-2.4c5.5-3.5 11.5-4.6 17.3-6.3v-1.3l-.7.2c-5.1 1.1-10.3 2-14.9 4.5-9.2 4.8-15.6 1.4-27.1 2.4 1.8-2.4 2.7-2.4 12.7-7.2-.6-1.5-1.5-.7-2-.5-11.2 4.3-14.4 8.5-24.8 9.2 16.5-10.4 37.9-17 56.8-13.5V159c-2.6-1-4.5-1.8-4.8-2.3l4.8-.8v-2.4c-27.9 2.4-51.7 11-79.7 32.9.3-6.2 30.2-61.9 43-77.9 13.8-17.1 24.5-17.6 36.7-13.1V82c-9.7 4.4-1.5 1.7-26.4 8.8 7.2-5.6 16.6-11.3 26.4-16.1v-3.4a157 157 0 00-22.2 12.6c-.7.4-1.3 1.2-2.6 1 10-17 18-28.7 24.8-36.8v-7.5a846 846 0 00-21.4 29.7c-1.5 2.2-2.8 4.6-5.3 6.8 2.5-32.4 12-35.3 26.3-75.6l.4-1.3V0h-3.3c-2.5 9.9-6.8 20.4-13 32.9-2.9 5.7-6.4 11.1-8.7 17.2-.2.5-.6.9-1.2 1-.5-1.5-.4-3-.3-4.5.7-13.9.4-17.2 5-23.1 9.3-12 9.3-12.5 9.4-14.7-10.8 13.7-14.1 16.7-15.4 24.5-3.5-17.7 1.6-24.9 7.8-33.3h-2.1c-2.5 3.2-5.2 6.3-6.8 10.4 0-3.9-.3-7.2-.2-10.4h-4v2.7c0 .8 0 1.6-.7 2.4a29 29 0 01-6.2-5.1h-2.2c4.5 5 9.8 7 9.3 14.2-.2 3.7.1 7.3-.1 11.2-4.2-5.5-10-9.2-13.1-15.3-1.5.7-1 1.4-.8 1.9 5.5 8.7 15.3 13.4 14.5 25-.4 6.3-.1 12.5-1 18.8-5.2-16.7-14.4-20-18-42.6-.8-5-1.4-9.3-1.8-13.2h-4.5a91 91 0 0017.3 49.1c9.6 13.3 6.4 38 2.3 44.5-35.2 56.8-33.6 62.5-50.3 90.5-.4.7-.5 1.7-1.9 1.4-7.5-28.7 1.5-14.5 3.5-63.7 2.4-56.4-34.5-83.1-78-119.4-3.7-3.2-5.8.5-6.3 5.3-1.4 10.3-2.7 20.5-2.9 31-1.8 120.5 35 107.7 65 133.2.7.6 1.4 1 2.1 1.4 12.5 6.5 11 17.2 10.6 31.4 0 0-24.4 75.7-30.8 101.6-.2.8 0 2-1.3 2.4-23.3-34.4-2.3-57.5-27.5-110-17.1-35.4-49.1-48.3-84.4-74.5-51.4-38.1-21.7-12.7-17.2 56.6 2 32 3.6 53 25 74.3 43.4 43 81.4 28.1 92.6 48.8a64.7 64.7 0 00-72.6 18.8c-11.7 13-17 15-20 17.8-9.7 8.7 23.6 27.7 52.2 4 19.6-16 17.4-25 37-28l-.4 1c-14.7 7.8-11.6 24-27.2 32.9-2.8 1.6-1.1 2.8 2 4 13 5 20.2-.6 28.9-5.8-.4 2.9-.6 5.3-1.1 7.7-6.4 29.6-6.5 43.9-14.3 80-5.4 24.7-5 28.7-7.4 37.7a100 100 0 00-3.1 18.6c-.3 4.6 3.9 2.4 4.9 1.6 10.7-7.8 12.3-8.4 12.8-12.8 1.5-12.8 4.7-25 7.7-55.2 1.4-14 7-52.3 7.4-54.3 4.4-24 4-32.5 13.3-41.3 23.2-21.7 54.3 10.8 99.8 10.1 6.6 0 13.2-.5 19.7-1.3V335c-6.8 1-12.5 1.4-15.6 1.5-47 1-59-15.4-85.4-15.7-.8 0-1.6.2-2.5-.5a54.8 54.8 0 0132.7-8.4c3.6.3 26.2 6.3 30.5 7.7 1.9.7 3.9 1.3 6.5.5-12.2-3.8-23.8-7.5-36.3-10 2.5-1.6 4.9-1.6 7-2 36-6.3 41.6 4.7 63.1 4.5v-.7c-12.4-2.1-24.6-5.6-37.1-7.8 5-1.2 1.2-.9 33.9-5.5l3.2-.3v-1.6h-3.5c.8-1.4 2.2-1.2 3.2-1.4l.3-.1v-5.6l-2.8 1.6c-4 2-2.2 1.5-28 5.5l-1.8-.2c19-15.6 15.1-15.1 27.9-21.3-1-1.3-2-.5-2.7-.2-21.4 9.2-15.8 24.7-55.7 26 11.3-7.8 19.8-18 32-23-3.4 0-6.5 1.2-9.2 3.2-29.2 21.4-18.5 19-49.9 25.7 6-7.4 13-12.5 21-16.7-1.2-1.3-2-.5-2.8-.2-16.9 8.2-14.3 15.9-34.5 22.8-3.2 1-5.6 3.4-8.9 4.7-.2-1.8 1.1-2.6 2-3.4 47.5-49.4 75.6-46 113.4-50.2v-5c-28 3.2-56.7 6.6-83.7 26.3-28 20.6-23 20.7-36.8 31 .9-4.8 16.4-67.2 27.3-96.5 4.7-12.6 6.5-20.6 16.9-20 17.5 1 13.4 17 25.7 32 7.3 8.8 17 13.5 28 15.7 8 1.6 15.5.5 22.6-2.4v-2.7c-10.1 4-27.1 3-35.2-3.5 2.2-3.5 1.1-7.3 1-11.6l8.7 5.6c1.8 1.2-.2 6.8 6.1 9-1.9-1.8-3-4-3.6-7.6a40.5 40.5 0 0023 5.2V234c-14-3.9-18-19.3-33.6-33.4a45.8 45.8 0 00-38.7-9.4l-.3-.8c25.5-18.2 55.8 11 69 17.4l3.6 1.8v-4.7a86.3 86.3 0 01-14-7.3"
            clip-rule="evenodd" />
        <path fill-rule="evenodd"
            d="M1171.7 293.9l.1.1.2.2-.1-.2-.2-.1zm135 30c1.5 1.2 4.2 2.1 7.3 2.8v-1c-2.4-.4-4.9-1-7.3-1.7zm-7.6 3.3c4.9 1.9 9.8 3.4 14.9 4V330c-5-.7-10-1.5-14.9-2.8zm-65.8-6.4l16.8 4c-5.6-1.6-10.8-4.5-16.8-4zm20.4 2l-7-2.2c4.3 3.1 4.3 3.1 7 2.2zm42.5 8.7c1.9.5 3.6 1.8 5.6.7-1.8-.7-3.6-1.4-5.6-.7zm-208.7-87l.1.1h-.1M1089.5 245.8c-.5-.7-1-1.2-1.9-1.2 5.1 8.8 12 15.8 21.2 20.1 0-.5-.2-.9-.5-1a63.7 63.7 0 01-18.8-18zm6.6 2.2c-3.4-4.5-6.1-9.4-9.6-13.8 2.2 5.3 5 10.2 9.6 13.8zm11.6 2.3a93 93 0 0014 7.4l.4-.9-14-7.3-.4.8zm21.6 8.3c-4.5-2.4-8.7-5.7-13.8-7.1 4.5 2.5 8.6 6 13.8 7.1zm-55.3-58.8h.2-.2zm.2 0c2.6 3.4 8.1 6.5 12.1 6.9l-7-4c-1.8-.8-3-2.7-5.1-2.9z"
            clip-rule="evenodd" />
        <path fill-rule="evenodd"
            d="M1074 199.8h.1l-.1-.1v.1zm-5.8-6l-.7.5c1.5 2.6 3.8 4.2 6.5 5.4-1.3-2.6-4-3.8-5.8-5.9zm11 35.2c-.3-2.4-.3-2.4-2-4.2.2 1.8 1.7 2.7 2 4.2zm5.5 11c.8 1.5 1.3 3.3 2.8 4.5.4-2.4-1.4-3.3-2.8-4.6zm2.8 4.6h.1v-.1h-.1zm-.7-41l-.4.3c1 1.1 2.1 1.9 4 2.2-1-1.7-2.3-2.1-3.6-2.5zm-3.8-2.4v-.1zm-3.6-2.4c1 1.6 2.1 2.2 3.5 2.3-.7-1.3-1.8-1.9-3.5-2.3z"
            clip-rule="evenodd" />
        <path fill-rule="evenodd"
            d="M1083 201.2zm0 0c.5 1.8 2 2 3.4 2.7l.4-.3a5 5 0 00-3.7-2.4zm-17.9-10.3a5 5 0 002.4 3.4l.7-.5c-.7-1-1.4-2.1-3-2.9zm85.6 12c4.8 7.2 7.8 15.3 11.4 24-.1-6.8-6.9-20.8-11.4-24zm-33.2-27.7c-.7-5.1-1.4-9.5-3.5-14.5-.2 4 1.6 11.5 3.5 14.5zm-27.3-34l3.4 11.4 1-.3c-1.2-3.8-1.4-8-3.6-11.5l-.8.4zm5.9 4.6l2 8.4.8-.2c-.1-3-.2-5.9-2-8.5l-.8.3zm50.8 56.7c1.7 2.7 2.2 6 4.7 8.2-1.4-2.8-1.8-6.3-4.7-8.2zm-73.8-68.4c-1.5-3.1-1.8-5.8-3.4-8.3-.3 3.3.4 5.1 3.4 8.3zM1152 212c.5 1.7.3 2.9 2 3.2-.1-1-.4-2-2-3.2zm36.1-73.4c-3.9-3.8-8.5-6-12.1-9.6 1.9 4 7.8 8.5 12.1 9.6zm-9.7-3.2c-3.4-2.8-6.6-6-10.3-8.7 2.4 4.2 6 7 10.3 8.7zm-21.8-81c1 2.9 2.7 5 4.8 6.8.5 0 .7-.2.5-.4a22.7 22.7 0 00-5.3-6.3zm-4.9 18.7c-.7-2.2-2.2-3.9-3.9-5.5a8 8 0 004 5.5zm-3.2-11.8l-2.2-4c0 1.7.4 3.3 2.2 4zm10.3 24.8c.4 1.4.5 2.5 1.5 3.1l.5-.2c-.2-1.1-.6-2.1-2-2.9zm-12-32.7c-.5.7.3 1.4 1.7 2.4-.4-1-1.1-3.2-1.7-2.4zm52.2-.7l1.9 9.4c.7 3.1-.3 6.5 1.4 9.5.3-6.5-.2-13-2.3-19.1l-1 .2zm7.8 21c0-3.8.2-7-2.2-10 1.5 10.8.3 8.3 2.2 10zm-23-27.8c0-2.7 0-5.5-1.7-7.9 0 2.8.2 5.4 1.7 7.9zm118-45.9h-.5l-1.2 1.7 1.8-1.7zm-8 32c2.3-1 2.3-1 2.7-3-2.5 2.3-1.7 1.5-2.7 3zm-13.2 8.1c-.9-4.9-3.2-9.1-6.7-12.6 2.6 4 4 8.6 6.8 12.6zm-11.8-13.7l5.4 8.4c-.5-3.7-2-6.7-5.4-8.4z"
            clip-rule="evenodd" />
    </g>
</svg>