<svg xmlns="http://www.w3.org/2000/svg" width="187" height="54">
    <path fill="#fff"
        d="M6.6 53.2c-1-.2-1.4-.9-1.6-2.7-.4-3.4-.7-10.6-.7-17.3a121.7 121.7 0 00-.2-9.7c.3-.7 1-1 1.7-.8.7.2.9.4 1 1 .3.7.3.7.7-1 .7-2.7 1.2-3.4 2.6-3.4.4 0 .8.1 1.1.4.6.5.7 1.1 1 4.7a77.8 77.8 0 004.2 23.4c.2.6.2.6.5 0a35 35 0 001.8-6A457 457 0 0121.6 31a1.9 1.9 0 013.4.4l1 5c1 5 1.3 6.2 2 8 .5 1.3 1.7 3.2 2.2 3.3.4.2 1.3-.7 1.3-1.4 0-1.3 1.3-5 2.4-7.1 1.6-2.9 4.2-5.8 6-6.6 2.3-1.1 5.1 0 4.5 1.7-.2.5-.7 1-1.1 1A28 28 0 0040 39a145.4 145.4 0 00-4.6 7.4c-.4.6-.5 1-.5 1.7s0 .8.3.7c1.3-.3 4-4.7 5.7-9L42 37c.5-1 2-1.2 2.7-.3.4.5.5.8 1.4 5.4 1 4.8 1.2 5.5 2 5.6.5.2 1.3 1 1.3 1.4 0 .7-.4 1.3-1 1.6-1.9.7-3.3-.1-4.3-2.3a21 21 0 01-1-4.6c0-.6-.3-.2-1.1 1.7-1.5 3.2-3.2 5.3-5 6.3-.9.4-1.1.5-2.2.5-1.3 0-1.5 0-2.4-.9-.4-.3-.5-.3-1.3-.2-1.7.4-3.2-.4-4.6-2.2a19.8 19.8 0 01-3.2-7.9l-.4-1.4-.7 2.7c-1.1 4.9-2 7.3-3.3 8.6-.5.5-.8.7-1.5.9-.8.1-1 .1-1.7-.1-2.1-.7-3.2-3-4.9-10.6-.7-3.5-.7-3.5-.9-1.8l-.2 5.9c-.2 4.1-.4 6-.9 6.9a2 2 0 01-2.2 1zM39.5 38l1-1.5c.3-.6.3-.5-.6.4-1 1-2 2.3-2.8 3.5-.4.7-.3.6.7-.4l1.7-2zM54.9 51.9c-.5-.2-.8-.6-1-.9-.3-.6-.8-3-1.2-6 0-1-.2-1.8-.3-1.9l-1.3-.2c-1.1 0-1.3-.1-1.7-.5-.5-.5-.6-1-.2-1.6.2-.5.3-.5 1.8-.7l1.1-.2a171.6 171.6 0 00-2.3-19.4c.1-.4.8-1 1.2-1l.7.2c.8.4 2 3.7 2.7 7.8A175.9 175.9 0 0155.7 39l1.1-.2 2.7-1c2.3-.8 2.2-.8 2.1-1A276.8 276.8 0 0159 18.1c0-1 0-1.2.4-1.6.5-.5 1.3-.5 1.7 0 .5.4.6.8 1.2 5.6l2.2 13.4c.2.9.2.9.7.8.8-.2 2.2.2 2.6.6.2.3.4.6.4 1 0 .7-.5 1-1.8 1.5-.5.1-1 .3-1 .5 0 .4.7 3 1.2 4.6.7 1.9.8 3 .4 3.6-.4.6-1 .8-1.5.6-.9-.3-2-3-2.8-6.6-.2-1-.4-1.4-.5-1.3l-3.1 1-3 1a68.8 68.8 0 001.1 6c.4 1.2.4 2 0 2.7a2 2 0 01-.8.5l-.6.2-1-.3zM124.9 53.9c-.8-.2-2.4-1-3-1.5-.6-.6-1.1-1.5-1-1.9.1-.4 1.3-.5 2.7-.2 2.6.5 6 .1 7.8-1 1.4-.7 1.6-1.1 1.6-2.7 0-1.8-.1-2.3-3.5-12.1-3-9-3.5-10.8-4.3-14.2-.7-3.3-.6-5.6.1-6.2 1-.6 2.5.2 2.2 1.1-.2 1 0 2.8.6 5.2.6 2.4 2 6.7 5 15.2 2.8 7.5 3.1 8.7 3.2 11 .1 2 .1 2.2-.3 2.9-1.1 2.2-3.3 3.6-7 4.3-1 .2-3.1.3-4.1 0zM97.6 54.5c-.7-.4-.9-1.2-1-3.9 0-2.4 0-2.4-2-2.5-2 0-3.2-.4-4.2-1-.7-.5-1-1-1-2 0-1.5.8-2.5 4.6-5.7l2-1.6h-1.5c-4.2.1-7.1-1.4-7.1-3.8s3.6-4.9 7.9-5.6c1-.2 1.1-.2 1-.4-.2-.5-.2-7 0-9.4.1-2 .2-2.3.5-2.7.5-.5 1.4-.5 1.9 0 .3.4.3.7.4 2.6.2 4.2 0 8.9-.3 9.8 0 .2 0 .3.5.5 1.2.5 1.5 1 .9 1.8-.2.2-.6.3-2.1.5-2 .2-3 .5-4.4 1a9 9 0 00-2.6 1.7c0 .5 3.8.6 6.4.2 2.9-.4 4.1-.1 4.4 1 .3 1.3 0 1.8-4.6 5.7-3.8 3.2-4.4 3.8-4.1 4l2 .2c2 0 2 0 2.1-.3.3-.8 1.3-1 1.9-.3.2.2.6.3 1.2.3 1 .1 1.3.3 1.4 1 .1.5 0 .6-.4 1l-1.1.8c-.6.3-.6.3-.6 1.3.2 1.7.2 4.6 0 5-.2.5-.9 1.1-1.3 1.1l-.8-.3zM156.8 52c-1-.8-1.3-2.6-.5-4l1-1.7c.7-.7.7-.7-.8-1.7a8.5 8.5 0 01-3.2-3.5l-.5-.8v-.7l.1-1.7c0-2.2 1.4-5.9 2.4-6.6l1-.2c1.3 0 2 1.2 1.3 2.5-.8 1.6-1.4 5-1 6.1.4.9 2.8 2.7 4 3 .4 0 .5 0 1-.7a37 37 0 013.8-5.4c1-1.1 2-2.5 2.2-3a18 18 0 013-3.8c1-.6 2-.3 2.4.6.4.7.3 1-.8 2.7a16 16 0 00-2.3 4.5c0 .5.1.6 1.6 1.3 1.8 1 3 2 3.6 3.3.6 1.1.6 3 0 4.2a20 20 0 01-3 4.6c-.7.5-1.4.4-2-.1-.6-.7-.5-1.5.8-3.8 1.1-2 1.3-2.9.7-3.7a9 9 0 00-2-1.3 7.7 7.7 0 01-3.2-2.7c-.2-.3-.4-.2-1.9 1.4-1.8 1.8-2.3 2.7-2 2.8.5.2 1.7 1.3 2 1.9.2.7.2 2.2-.2 3-.2.4-.8 1.2-1.4 1.8-2 1.8-4.7 2.6-6 1.7zm4.3-5c-.1-.1-.3 0-.6.5-.6 1-.5 1.1.2.4.5-.5.6-.7.4-.9zM142.6 49.7c-1.9-.8-3-2-3.5-3.6-.7-2 0-5.8 1.5-8.4.8-1.4 2.1-2.8 3-3.1 1.8-.6 3.8 0 4.6 1.4 1.1 2.1-.7 6.7-3.9 9.5-1 1-1 1-.6 1.1 1 .4 2.8.1 5-.9 2.4-1 3-1 3.1-.6.4 1-1.4 3-3.7 4.1-1.3.6-1.5.7-3 .7-1.4 0-2 0-2.5-.2zm1.3-8a7.9 7.9 0 001.5-3.6c0-1.8-2.2 1-3 3.9l-.2 1.3c0 .4.8-.5 1.7-1.6z" />
</svg>